<?xml version="1.0" encoding="utf-8"?>
<!-- Generator: Adobe Illustrator 24.1.1, SVG Export Plug-In . SVG Version: 6.00 Build 0)  -->
<svg version="1.1" id="Layer_1" xmlns="http://www.w3.org/2000/svg" xmlns:xlink="http://www.w3.org/1999/xlink" x="0px" y="0px"
	 viewBox="0 0 100 100" style="enable-background:new 0 0 100 100;" xml:space="preserve">
<style type="text/css">
	.st0{fill:#3A3365;}
</style>
<path class="st0" d="M50.14,4.04C74,3.75,96.11,23.66,96,50.15c-0.11,25.44-20.91,45.83-46.03,45.82C24.9,95.95,4.07,75.56,4,50.07
	C3.93,23.54,26.18,3.59,50.14,4.04z M43.27,39.44c0,4.81,0.01,9.61-0.01,14.42c-0.01,1.45,0.27,2.68,1.56,3.61
	c5.08,3.64,10.11,7.34,15.19,10.99c1.77,1.28,2.81,1.06,4.14-0.75c1.41-1.91,2.8-3.82,4.2-5.73c1.52-2.08,1.37-3-0.76-4.54
	c-2.98-2.16-5.9-4.42-8.98-6.42c-1.56-1.01-1.96-2.19-1.94-3.92c0.07-7.37,0.05-14.74,0.02-22.12c-0.01-2.58-0.62-3.14-3.15-3.16
	c-2.24-0.01-4.48-0.01-6.71,0c-2.96,0.01-3.53,0.57-3.54,3.61C43.25,30.1,43.27,34.77,43.27,39.44z"/>
</svg>
