<svg width="229" height="92" viewBox="0 0 229 92" fill="none" xmlns="http://www.w3.org/2000/svg">
<g id="InniveK12 (2) 1" clip-path="url(#clip0_718_5863)">
<path id="Vector" d="M97.1612 67.7509C97.5184 68.2271 97.6375 68.7034 97.6375 69.2988C97.6375 70.0132 97.3994 70.4895 96.804 70.9657C96.4468 71.2039 95.8515 71.442 95.2561 71.442C94.6608 71.442 94.0654 71.2039 93.5891 70.6085L82.3965 56.4392L77.2765 61.202V69.0606C77.2765 69.656 77.0384 70.2513 76.6812 70.6085C76.2049 71.0848 75.7286 71.2039 75.0142 71.2039C74.2998 71.2039 73.8235 70.9657 73.3472 70.6085C72.871 70.2513 72.6328 69.775 72.6328 69.1797V41.9127C72.6328 41.3173 72.871 40.841 73.2282 40.3648C73.7044 39.8885 74.1807 39.7694 74.8951 39.7694C75.6096 39.7694 76.0858 40.0075 76.5621 40.3648C77.0384 40.722 77.1575 41.3173 77.1575 41.9127V55.9629L93.5891 40.4838C94.1845 40.0075 94.7798 39.7694 95.3752 39.7694C95.9705 39.7694 96.4468 40.0075 96.804 40.4838C97.1612 40.9601 97.3994 41.4364 97.3994 41.9127C97.3994 42.3889 97.1612 42.8652 96.804 43.3415L85.8496 53.4625L97.1612 67.7509Z" fill="#E32A88"/>
<path id="Vector_2" d="M109.783 39.7694C110.378 39.7694 110.854 40.0075 111.211 40.4838C111.569 40.841 111.807 41.3173 111.807 42.0317V69.2988C111.807 69.8941 111.569 70.3704 111.092 70.8467C110.616 71.323 110.021 71.442 109.425 71.442C108.711 71.442 108.235 71.2039 107.758 70.8467C107.282 70.3704 107.163 69.8941 107.163 69.2988V45.7229L103.115 48.1043C102.758 48.3424 102.4 48.4615 101.924 48.4615C101.329 48.4615 100.733 48.2234 100.376 47.7471C99.8998 47.2708 99.7808 46.7945 99.7808 46.1992C99.7808 45.842 99.8998 45.4848 100.138 45.1276C100.376 44.7703 100.614 44.5322 100.971 44.2941L108.235 40.0075C108.592 39.8885 109.068 39.7694 109.783 39.7694Z" fill="#E32A88"/>
<path id="Vector_3" d="M137.288 67.3937C137.883 67.3937 138.359 67.6318 138.716 67.989C139.074 68.3462 139.312 68.8225 139.312 69.4179C139.312 70.0132 139.074 70.4895 138.716 70.8467C138.359 71.2039 137.764 71.442 137.288 71.442H120.856C120.261 71.442 119.784 71.2039 119.308 70.8467C118.951 70.4895 118.713 69.8941 118.713 69.2988C118.713 68.7034 118.951 68.2272 119.308 67.7509L129.667 56.7964C132.525 53.8197 133.954 51.2001 133.954 48.9378C133.954 47.2708 133.358 45.9611 132.287 44.8894C131.215 43.8178 129.786 43.2224 128.119 43.2224C126.929 43.2224 125.857 43.5797 124.785 44.175C123.714 44.7704 122.88 45.7229 122.285 46.9136C121.808 47.509 121.213 47.8662 120.499 47.8662C120.022 47.8662 119.427 47.628 119.07 47.2708C118.594 46.9136 118.355 46.4373 118.355 45.9611C118.355 45.6038 118.475 45.2466 118.713 44.8894C118.951 44.5322 119.308 44.0559 119.784 43.5797C120.856 42.2699 122.047 41.1983 123.714 40.3648C125.262 39.5313 126.929 39.1741 128.476 39.1741C130.501 39.1741 132.287 39.5313 133.835 40.3648C135.382 41.1983 136.454 42.2699 137.288 43.6987C138.121 45.1276 138.478 46.7945 138.478 48.5806C138.478 52.0336 136.573 55.7248 132.763 59.7732L125.738 67.2746H137.288V67.3937Z" fill="#E32A88"/>
<path id="Vector_4" d="M74.7761 32.1489C74.7761 32.387 74.657 32.6252 74.5379 32.8633C74.2998 33.1015 74.0617 33.1015 73.8235 33.1015C73.5854 33.1015 73.3472 32.9824 73.1091 32.8633C72.871 32.6252 72.871 32.5061 72.871 32.1489V23.4568C72.871 23.2186 72.99 22.9805 73.1091 22.7424C73.3472 22.5042 73.5854 22.5042 73.8235 22.5042C74.0617 22.5042 74.2998 22.6233 74.5379 22.7424C74.7761 22.9805 74.7761 23.0996 74.7761 23.4568V32.1489ZM73.8235 21.1945C73.4663 21.1945 73.1091 21.0754 72.99 20.9563C72.7519 20.8372 72.6328 20.5991 72.6328 20.2419V19.8847C72.6328 19.5275 72.7519 19.2893 72.871 19.1703C73.1091 19.0512 73.3472 18.9321 73.7044 18.9321C74.0617 18.9321 74.4189 19.0512 74.5379 19.1703C74.7761 19.2893 74.7761 19.5275 74.7761 19.8847V20.2419C74.7761 20.5991 74.657 20.8372 74.5379 20.9563C74.4189 21.0754 74.1807 21.1945 73.8235 21.1945Z" fill="white"/>
<path id="Vector_5" d="M82.8727 22.3851C85.3732 22.3851 86.683 23.814 86.683 26.7907V32.1489C86.683 32.387 86.5639 32.6252 86.4448 32.8633C86.2067 33.1014 85.9685 33.1014 85.7304 33.1014C85.4923 33.1014 85.2541 32.9824 85.016 32.8633C84.7779 32.6252 84.7778 32.5061 84.7778 32.1489V26.6717C84.7778 25.8382 84.5397 25.2428 84.1825 24.7665C83.8253 24.2903 83.2299 24.0521 82.2774 24.0521C81.682 24.0521 81.2058 24.1712 80.7295 24.4093C80.2532 24.6475 79.896 25.0047 79.6578 25.3619C79.4197 25.7191 79.3006 26.1954 79.3006 26.6717V32.1489C79.3006 32.387 79.1816 32.6252 79.0625 32.8633C78.8243 33.1014 78.5862 33.1014 78.3481 33.1014C78.1099 33.1014 77.8718 32.9824 77.6336 32.8633C77.3955 32.6252 77.3955 32.387 77.3955 32.1489V23.5758C77.3955 23.3377 77.5146 23.0996 77.6336 22.8614C77.8718 22.6233 78.1099 22.6233 78.3481 22.6233C78.5862 22.6233 78.8243 22.7423 79.0625 22.8614C79.3006 23.0996 79.3006 23.2186 79.3006 23.5758V24.2903C79.6578 23.6949 80.1341 23.3377 80.8485 22.9805C81.4439 22.5042 82.1583 22.3851 82.8727 22.3851Z" fill="white"/>
<path id="Vector_6" d="M94.7797 22.3851C97.2802 22.3851 98.59 23.814 98.59 26.7907V32.1489C98.59 32.387 98.4709 32.6252 98.3518 32.8633C98.1137 33.1014 97.8755 33.1014 97.6374 33.1014C97.3993 33.1014 97.1611 32.9824 96.923 32.8633C96.6848 32.6252 96.6848 32.5061 96.6848 32.1489V26.6717C96.6848 25.8382 96.4467 25.2428 96.0895 24.7665C95.7323 24.2903 95.1369 24.0521 94.1844 24.0521C93.589 24.0521 93.1127 24.1712 92.6365 24.4093C92.1602 24.6475 91.803 25.0047 91.5648 25.3619C91.3267 25.7191 91.2076 26.1954 91.2076 26.6717V32.1489C91.2076 32.387 91.0885 32.6252 90.9695 32.8633C90.7313 33.1014 90.4932 33.1014 90.2551 33.1014C90.0169 33.1014 89.7788 32.9824 89.5406 32.8633C89.3025 32.6252 89.3025 32.387 89.3025 32.1489V23.5758C89.3025 23.3377 89.4216 23.0996 89.5406 22.8614C89.7788 22.6233 90.0169 22.6233 90.2551 22.6233C90.4932 22.6233 90.7313 22.7423 90.9695 22.8614C91.2076 23.0996 91.2076 23.2186 91.2076 23.5758V24.2903C91.5648 23.6949 92.0411 23.3377 92.7555 22.9805C93.3509 22.5042 94.0653 22.3851 94.7797 22.3851Z" fill="white"/>
<path id="Vector_7" d="M103.115 32.1489C103.115 32.387 102.996 32.6252 102.877 32.8633C102.638 33.1015 102.4 33.1015 102.162 33.1015C101.924 33.1015 101.686 32.9824 101.448 32.8633C101.21 32.6252 101.21 32.5061 101.21 32.1489V23.4568C101.21 23.2186 101.329 22.9805 101.448 22.7424C101.686 22.5042 101.924 22.5042 102.162 22.5042C102.4 22.5042 102.638 22.6233 102.877 22.7424C103.115 22.9805 103.115 23.0996 103.115 23.4568V32.1489ZM102.043 21.1945C101.686 21.1945 101.329 21.0754 101.21 20.9563C101.091 20.8372 100.971 20.5991 100.971 20.2419V19.8847C100.971 19.5275 101.091 19.2893 101.21 19.1703C101.448 19.0512 101.686 18.9321 102.043 18.9321C102.4 18.9321 102.757 19.0512 102.877 19.1703C103.115 19.2893 103.115 19.5275 103.115 19.8847V20.2419C103.115 20.5991 102.996 20.8372 102.877 20.9563C102.757 21.0754 102.4 21.1945 102.043 21.1945Z" fill="white"/>
<path id="Vector_8" d="M113.95 22.5042C114.188 22.5042 114.426 22.6232 114.665 22.7423C114.903 22.8614 114.903 23.0995 114.903 23.3376C114.903 23.4567 114.903 23.5758 114.784 23.8139L110.735 32.506C110.616 32.6251 110.497 32.8632 110.378 32.9823C110.259 33.1014 110.021 33.1014 109.902 33.2205C109.664 33.2205 109.425 33.2205 109.306 33.1014C109.068 32.9823 108.949 32.8632 108.83 32.6251L104.782 23.8139C104.782 23.5758 104.782 23.4567 104.782 23.3376C104.782 23.0995 104.901 22.9804 105.02 22.7423C105.258 22.6232 105.496 22.5042 105.734 22.5042C105.972 22.5042 106.092 22.5042 106.33 22.6232C106.449 22.7423 106.687 22.8614 106.687 23.0995L109.902 30.1246L113.117 23.0995C113.236 22.6232 113.593 22.5042 113.95 22.5042Z" fill="white"/>
<path id="Vector_9" d="M126.214 27.5051C126.214 27.7433 126.095 27.9814 125.857 28.1005C125.619 28.2195 125.381 28.3386 125.143 28.3386H117.76C117.879 29.2912 118.237 30.1247 118.951 30.72C119.665 31.3154 120.499 31.5535 121.451 31.5535C122.166 31.5535 122.642 31.4344 123.118 31.3154C123.595 31.0772 123.952 30.8391 124.19 30.6009C124.428 30.4819 124.547 30.3628 124.785 30.3628C125.024 30.3628 125.262 30.4819 125.381 30.6009C125.5 30.72 125.619 30.9582 125.619 31.1963C125.619 31.4344 125.5 31.7916 125.143 31.9107C124.785 32.2679 124.19 32.6251 123.476 32.8633C122.761 33.1014 122.166 33.2205 121.451 33.2205C120.261 33.2205 119.308 32.9823 118.475 32.5061C117.641 32.0298 116.927 31.4344 116.451 30.6009C115.974 29.7675 115.736 28.8149 115.736 27.8623C115.736 26.7907 115.974 25.7191 116.451 24.8856C116.927 24.0521 117.522 23.3377 118.356 22.8614C119.189 22.3851 120.023 22.147 120.975 22.147C121.928 22.147 122.761 22.3851 123.476 22.8614C124.309 23.3377 124.904 23.933 125.381 24.6474C125.976 25.6 126.214 26.4335 126.214 27.5051ZM121.094 24.0521C120.261 24.0521 119.665 24.2902 119.07 24.6474C118.475 25.0047 118.117 25.7191 117.879 26.5526H124.071V26.4335C123.952 25.7191 123.714 25.1237 123.118 24.6474C122.523 24.2902 121.809 24.0521 121.094 24.0521Z" fill="white"/>
<path id="Vector_10" fill-rule="evenodd" clip-rule="evenodd" d="M224.447 49.0568C226.709 49.0568 228.614 47.1517 228.614 44.8894C228.614 42.627 226.709 40.7219 224.447 40.7219C222.185 40.7219 220.28 42.627 220.28 44.8894C220.28 47.1517 222.185 49.0568 224.447 49.0568ZM224.447 47.0326C225.638 47.0326 226.471 46.0801 226.471 44.8894C226.471 43.6987 225.519 42.7461 224.447 42.7461C223.375 42.7461 222.423 43.6987 222.423 44.8894C222.423 46.0801 223.375 47.0326 224.447 47.0326Z" fill="white"/>
<path id="Vector_11" d="M164.674 53.1051C163.602 52.867 163.007 51.4382 163.721 50.6047L169.913 43.1033C170.151 42.8651 170.27 42.5079 170.27 42.1507V42.0316C170.27 41.3172 169.675 40.6028 168.841 40.6028H151.695C151.1 40.6028 150.624 41.0791 150.624 41.6744C150.624 42.2698 151.1 42.746 151.695 42.746H164.317C165.507 42.746 166.103 44.1749 165.388 45.0084L159.435 52.1526C158.958 52.6289 158.958 53.3433 159.435 53.9386L159.673 54.1768C159.792 54.4149 160.03 54.534 160.268 54.534H160.506C165.507 54.534 169.198 57.0344 169.198 61.2019C169.198 65.3693 165.507 67.8698 160.625 67.8698C156.934 67.8698 154.077 66.6791 152.529 64.5359C152.171 63.9405 151.457 63.7024 150.862 64.0596C150.266 64.2977 150.028 65.0121 150.385 65.6075C152.29 68.4652 156.22 70.1321 160.625 70.1321C166.579 70.1321 171.818 66.9173 171.818 61.321C171.818 57.0344 168.841 54.1768 164.674 53.1051Z" fill="white"/>
<path id="Vector_12" fill-rule="evenodd" clip-rule="evenodd" d="M170.984 44.0559L164.793 51.5574C164.793 51.5574 164.793 51.5574 164.793 51.6764C164.793 51.7955 164.912 51.7955 165.031 51.7955C169.556 52.9862 173.247 56.082 173.247 61.202C173.247 64.536 171.699 67.0365 169.317 68.8225C166.936 70.4895 163.84 71.442 160.625 71.442C155.862 71.442 151.576 69.7751 149.195 66.322C148.242 65.0123 148.956 63.3453 150.147 62.7499C151.457 62.0355 152.886 62.7499 153.6 63.7025C154.791 65.3695 157.053 66.4411 160.506 66.4411C162.769 66.4411 164.555 65.8458 165.864 64.8932C167.055 63.9406 167.769 62.7499 167.769 61.083C167.769 59.416 167.055 58.2253 165.864 57.2727C164.555 56.3201 162.769 55.7248 160.387 55.7248H160.149C159.435 55.7248 158.839 55.3676 158.482 54.8913L158.244 54.6532C157.41 53.5815 157.41 52.1527 158.363 51.0811L164.316 43.9369H151.695C150.385 43.9369 149.314 42.8652 149.314 41.5555C149.314 40.2457 150.385 39.1741 151.695 39.1741H168.841C170.389 39.1741 171.58 40.4838 171.58 41.9127V42.0317C171.58 42.8652 171.342 43.5797 170.984 44.0559ZM159.196 54.5341C159.196 54.7722 159.196 54.8913 159.316 55.1294C159.196 55.0104 159.196 54.7722 159.196 54.5341ZM163.721 50.6048C163.007 51.4383 163.602 52.8671 164.674 53.1053C168.841 54.1769 171.818 56.9155 171.818 61.202C171.818 66.7983 166.579 70.0132 160.625 70.0132C156.22 70.0132 152.29 68.4653 150.385 65.4885C150.028 64.8932 150.266 64.2978 150.862 63.9406C151.457 63.5834 152.171 63.9406 152.529 64.4169C154.076 66.5602 156.934 67.7509 160.625 67.7509C165.626 67.7509 169.198 65.2504 169.198 61.083C169.198 56.9155 165.507 54.415 160.506 54.415H160.268H160.149C159.911 54.415 159.792 54.296 159.673 54.1769L159.435 53.9388C159.077 53.4625 159.077 52.629 159.435 52.1527L165.388 45.0085C166.103 44.0559 165.507 42.7462 164.316 42.7462H151.695C151.1 42.7462 150.623 42.2699 150.623 41.6745C150.623 41.0792 151.1 40.6029 151.695 40.6029H168.841C169.556 40.6029 170.27 41.1983 170.27 42.0317V42.1508C170.27 42.508 170.151 42.7462 169.913 43.1034L163.721 50.6048Z" fill="white" stroke="white" stroke-width="1.1907" stroke-miterlimit="10"/>
<path id="Vector_13" d="M184.201 50.9619C183.011 50.9619 182.177 49.5331 182.892 48.5805L187.654 42.508C188.25 41.7936 187.654 40.7219 186.821 40.7219C186.464 40.7219 186.106 40.841 185.987 41.1982L175.271 54.8913C173.961 56.4392 173.247 58.3443 173.247 60.7257C173.247 66.322 177.891 70.2513 184.201 70.2513C190.512 70.2513 195.156 66.322 195.156 60.7257C195.156 54.8913 190.631 50.9619 184.201 50.9619ZM184.201 67.9889C178.962 67.9889 175.747 64.8931 175.747 60.6066C175.747 56.3201 179.081 53.2243 184.201 53.2243C189.44 53.2243 192.774 56.3201 192.774 60.6066C192.774 64.8931 189.44 67.9889 184.201 67.9889Z" fill="white"/>
<path id="Vector_14" fill-rule="evenodd" clip-rule="evenodd" d="M183.963 49.414L188.607 43.3415C189.917 41.6745 188.726 39.2931 186.702 39.2931C185.987 39.2931 185.273 39.6503 184.796 40.2456L174.08 53.9387C172.651 55.7247 171.818 57.9871 171.818 60.6066C171.818 67.1555 177.295 71.442 184.201 71.442C191.107 71.442 196.584 67.1555 196.584 60.6066C196.584 53.9387 191.107 49.6522 184.201 49.6522C184.082 49.5331 184.082 49.5331 183.963 49.414ZM178.962 64.7741C180.153 65.8457 181.939 66.5601 184.201 66.5601C186.583 66.5601 188.369 65.8457 189.559 64.7741C190.75 63.7024 191.345 62.2736 191.345 60.4875C191.345 58.7015 190.631 57.2727 189.559 56.201C188.369 55.1294 186.583 54.415 184.201 54.415C181.82 54.415 180.153 55.1294 178.962 56.201C177.771 57.2727 177.176 58.7015 177.176 60.4875C177.057 62.2736 177.771 63.8215 178.962 64.7741ZM182.891 48.5805C182.177 49.5331 183.01 50.9619 184.201 50.9619C190.512 50.9619 195.156 54.8913 195.156 60.4875C195.156 66.0838 190.512 70.0131 184.201 70.0131C177.89 70.0131 173.247 66.0838 173.247 60.4875C173.247 58.2252 173.961 56.3201 175.271 54.6531L185.987 40.9601C186.225 40.7219 186.463 40.4838 186.821 40.4838C187.773 40.4838 188.25 41.5554 187.654 42.2698L182.891 48.5805ZM175.747 60.6066C175.747 64.8931 179.081 67.989 184.201 67.989C189.44 67.989 192.774 64.8931 192.774 60.6066C192.774 56.3201 189.44 53.2243 184.201 53.2243C178.962 53.1052 175.747 56.201 175.747 60.6066Z" fill="white" stroke="white" stroke-width="1.1907" stroke-miterlimit="10"/>
<path id="Vector_15" d="M209.682 70.0131C218.017 70.0131 222.78 64.0596 222.78 55.3675C222.78 46.6754 218.136 40.7219 209.682 40.7219C201.347 40.7219 196.584 46.6754 196.584 55.3675C196.584 64.0596 201.228 70.0131 209.682 70.0131ZM209.682 67.9889C203.252 67.9889 199.323 63.3452 199.323 55.3675C199.323 47.3898 203.252 42.7461 209.682 42.7461C216.112 42.7461 220.041 47.3898 220.041 55.3675C220.041 63.3452 216.112 67.9889 209.682 67.9889Z" fill="white"/>
<path id="Vector_16" fill-rule="evenodd" clip-rule="evenodd" d="M220.399 66.9173C217.898 69.775 214.207 71.442 209.682 71.442C205.158 71.442 201.467 69.8941 198.966 66.9173C196.466 64.0597 195.275 60.0113 195.275 55.3675C195.275 50.7238 196.466 46.6754 198.966 43.8177C201.467 40.9601 205.158 39.2931 209.682 39.2931C214.207 39.2931 217.898 40.841 220.399 43.8177C222.899 46.6754 224.09 50.7238 224.09 55.3675C224.09 60.0113 222.899 64.0597 220.399 66.9173ZM203.134 63.7024C204.562 65.4885 206.825 66.5601 209.682 66.5601C212.54 66.5601 214.802 65.4885 216.231 63.7024C217.779 61.9164 218.613 59.0587 218.613 55.3675C218.613 51.6764 217.66 48.8187 216.231 47.0326C214.802 45.2466 212.54 44.175 209.682 44.175C206.825 44.175 204.562 45.2466 203.134 47.0326C201.586 48.8187 200.752 51.6764 200.752 55.3675C200.752 59.0587 201.586 61.9164 203.134 63.7024ZM222.661 55.3675C222.661 64.1787 218.017 70.0131 209.563 70.0131C201.228 70.0131 196.466 64.0597 196.466 55.3675C196.466 46.6754 201.109 40.7219 209.563 40.7219C218.017 40.7219 222.661 46.5564 222.661 55.3675ZM199.323 55.3675C199.323 63.3452 203.253 67.989 209.682 67.989C216.112 67.989 220.041 63.3452 220.041 55.3675C220.041 47.3899 216.112 42.7461 209.682 42.7461C203.134 42.7461 199.323 47.3899 199.323 55.3675Z" fill="white" stroke="white" stroke-width="1.1907" stroke-miterlimit="10"/>
<path id="Vector_17" fill-rule="evenodd" clip-rule="evenodd" d="M13.5739 46.1991C12.5022 46.1991 10.1208 50.2475 10.1208 50.2475C10.1208 50.2475 15.2409 53.8196 15.7171 54.1768C17.9795 55.8438 20.2418 57.6298 22.3851 59.5349C25.2427 62.1545 28.2195 64.8931 29.8865 68.4652C30.3628 69.5368 30.72 70.6084 30.839 71.7991C30.839 71.4419 30.9581 70.8466 30.9581 70.4894C30.9581 69.4177 31.0772 68.2271 30.9581 67.1554C30.839 65.1312 30.3628 62.988 29.2911 61.2019C28.6958 60.1303 27.9813 59.1777 27.1479 58.3442C25.0046 55.9628 22.5041 53.7005 20.1227 51.5572C18.813 50.3665 17.5032 49.2949 16.1934 48.2233C15.479 47.6279 14.6455 46.7944 13.6929 46.3182C13.6929 46.1991 13.5739 46.1991 13.5739 46.1991Z" fill="url(#paint0_linear_718_5863)"/>
<path id="Vector_18" fill-rule="evenodd" clip-rule="evenodd" d="M27.3862 19.8847C27.3862 20.9564 27.2671 22.1471 27.3862 23.2187C27.5052 25.2429 28.1006 27.3861 29.0532 29.1722C29.6485 30.2438 30.3629 31.0773 31.1964 32.0299C33.3397 34.4113 35.7211 36.5545 38.1025 38.6978C39.4122 39.7694 40.6029 40.9601 41.9127 42.0317C42.6271 42.6271 43.4606 43.4606 44.4132 43.9369C45.3657 44.4131 47.9853 40.0075 47.9853 40.0075C47.9853 40.0075 42.9843 36.4355 42.5081 36.1973C40.2457 34.5303 37.9834 32.7443 35.9592 30.8392C33.1015 28.2196 30.2439 25.481 28.5769 21.9089C28.1006 20.8373 27.7434 19.7657 27.6243 18.575C27.6243 19.0512 27.5052 19.5275 27.3862 19.8847Z" fill="url(#paint1_linear_718_5863)"/>
<path id="Vector_19" fill-rule="evenodd" clip-rule="evenodd" d="M7.97771 54.1769C7.85864 56.5583 7.85864 58.9397 7.73957 61.3211C7.6205 62.2736 7.02515 63.3453 7.6205 64.0597C7.97771 64.536 8.33492 64.7741 8.8112 65.1313C9.16841 65.4885 9.52562 65.9648 10.0019 66.4411C10.7163 67.0364 11.5498 67.6318 12.3833 68.1081C15.0028 69.775 17.5033 71.5611 19.8847 73.5853C22.5043 75.7285 25.2429 78.1099 26.0764 81.563C26.9098 84.7779 25.9573 87.9928 25.0047 90.9695C26.6717 87.8737 28.4578 85.016 29.5294 81.563C30.3629 78.9434 30.1247 75.6095 29.2912 73.109C28.5768 70.9657 27.5052 69.0606 26.0764 67.3936C25.7191 66.9174 25.3619 66.5602 24.8857 66.0839C21.7898 62.9881 17.9796 60.2494 14.5266 57.5108C12.3833 55.8438 10.24 54.2959 8.21585 52.5099C8.21585 52.629 7.97771 54.0578 7.97771 54.1769Z" fill="url(#paint2_linear_718_5863)"/>
<path id="Vector_20" fill-rule="evenodd" clip-rule="evenodd" d="M18.4558 18.0986C17.027 18.2177 15.8363 19.5275 15.0028 20.5991C14.5265 21.1945 14.0502 21.9089 13.4549 22.6233C10.9544 26.0763 7.85858 29.0531 5.47718 32.5061C4.76276 33.4587 4.16741 34.4112 3.57206 35.3638C-0.595394 41.9126 -1.30981 52.1527 2.85764 58.9396C3.69113 60.3685 4.76276 61.9164 5.95346 63.1071C7.14416 64.2978 8.69207 65.0122 9.64463 66.322C7.97765 62.869 8.33486 58.9396 9.52556 55.4866C10.8353 52.0336 12.8595 48.9378 15.2409 46.1992C17.6223 43.5796 20.7181 41.6745 22.8614 38.8168C24.2902 36.9117 25.4809 34.5303 25.9572 32.1489C26.4335 29.5294 26.0763 26.9098 25.2428 24.5284C24.6474 23.0996 23.933 21.7898 22.8614 20.5991C21.7898 19.5275 20.2419 18.0986 18.6939 18.0986C18.6939 18.0986 18.5749 18.0986 18.4558 18.0986Z" fill="url(#paint3_linear_718_5863)"/>
<path id="Vector_21" fill-rule="evenodd" clip-rule="evenodd" d="M29.4102 9.40653C28.5767 12.0261 28.8149 15.36 29.6484 17.8605C30.3628 20.0038 31.4344 21.9089 32.8633 23.5759C33.2205 24.0521 33.5777 24.4093 34.054 24.8856C37.1498 27.9814 40.96 30.7201 44.4131 33.4587C46.5563 35.1256 48.6996 36.6736 50.7238 38.4596C50.6047 38.3405 50.7238 37.0308 50.7238 36.7926C50.8428 34.4112 50.8428 32.0298 50.9619 29.6484C51.081 28.6959 51.6763 27.6242 51.081 26.9098C50.7238 26.4335 50.3666 26.1954 49.8903 25.8382C49.5331 25.481 49.1759 25.0047 48.6996 24.5284C47.9852 23.9331 47.1517 23.4568 46.3182 22.8614C43.6986 21.1945 41.1982 19.4084 38.8168 17.3842C36.1972 15.241 33.4586 12.8596 32.6251 9.40653C31.7916 6.19164 32.7442 2.97675 33.6968 0C32.2679 3.09582 30.4819 5.9535 29.4102 9.40653Z" fill="url(#paint4_linear_718_5863)"/>
<path id="Vector_22" fill-rule="evenodd" clip-rule="evenodd" d="M49.176 35.4828C47.8662 38.9358 45.842 42.0317 43.4606 44.7703C41.0792 47.3898 37.9834 49.2949 35.8402 52.1526C34.4113 54.0577 33.2206 56.4391 32.7443 58.8205C32.2681 61.4401 32.6253 64.0596 33.4588 66.441C34.0541 67.8699 34.7685 69.1796 35.8402 70.3703C36.9118 71.4419 38.6978 72.9899 40.3648 72.8708C41.7937 72.6326 42.8653 71.4419 43.6988 70.2512C44.1751 69.6559 44.6513 68.9415 45.2467 68.2271C47.7472 64.8931 50.843 61.7973 53.2244 58.3442C53.9388 57.3917 54.5341 56.4391 55.2486 55.3675C59.416 48.6996 60.1304 38.5786 55.963 31.7916C55.0104 30.3628 54.0579 28.8149 52.7481 27.6242C51.5574 26.4335 50.0095 25.7191 49.0569 24.4093C50.7239 27.9814 50.4858 32.0298 49.176 35.4828Z" fill="url(#paint5_linear_718_5863)"/>
</g>
<defs>
<linearGradient id="paint0_linear_718_5863" x1="12.9463" y1="48.208" x2="31.7673" y2="68.0746" gradientUnits="userSpaceOnUse">
<stop stop-color="#3D3777"/>
<stop offset="1" stop-color="#E32A88"/>
</linearGradient>
<linearGradient id="paint1_linear_718_5863" x1="41.214" y1="40.1339" x2="34.2573" y2="25.7634" gradientUnits="userSpaceOnUse">
<stop stop-color="#223F81"/>
<stop offset="1" stop-color="#00AADF"/>
</linearGradient>
<linearGradient id="paint2_linear_718_5863" x1="12.5717" y1="59.9233" x2="24.9346" y2="78.4179" gradientUnits="userSpaceOnUse">
<stop stop-color="#3D3777"/>
<stop offset="1" stop-color="#E32A88"/>
</linearGradient>
<linearGradient id="paint3_linear_718_5863" x1="7.15809" y1="49.937" x2="20.4353" y2="27.7484" gradientUnits="userSpaceOnUse">
<stop stop-color="#E32A88"/>
<stop offset="1" stop-color="#3D3777"/>
</linearGradient>
<linearGradient id="paint4_linear_718_5863" x1="46.1571" y1="31.0082" x2="33.794" y2="12.5127" gradientUnits="userSpaceOnUse">
<stop stop-color="#223F81"/>
<stop offset="1" stop-color="#00AADF"/>
</linearGradient>
<linearGradient id="paint5_linear_718_5863" x1="51.5879" y1="40.96" x2="38.3103" y2="63.0785" gradientUnits="userSpaceOnUse">
<stop stop-color="#00AADF"/>
<stop offset="1" stop-color="#223F81"/>
</linearGradient>
<clipPath id="clip0_718_5863">
<rect width="228.614" height="91.6839" fill="white"/>
</clipPath>
</defs>
</svg>
