<?xml version="1.0"?>
<svg xmlns="http://www.w3.org/2000/svg" xmlns:xlink="http://www.w3.org/1999/xlink" version="1.1" id="Capa_1" x="0px" y="0px" viewBox="0 0 512 512" style="enable-background:new 0 0 512 512;" xml:space="preserve" width="512px" height="512px" class=""><g><g>
	<g>
		<path d="M197.986,206.722L49.518,58.254H0V512h241V163.708L197.986,206.722z M203.532,338.913h-0.001    c0,45.784-37.248,83.031-83.031,83.031c-45.783,0-83.031-37.248-83.031-83.031v-83.031h166.063V338.913z" data-original="#000000" class="active-path" data-old_color="#000000" fill="#FFFFFF"/>
	</g>
</g><g>
	<g>
		<polygon points="149.719,0 256,106.281 362.281,0   " data-original="#000000" class="active-path" data-old_color="#000000" fill="#FFFFFF"/>
	</g>
</g><g>
	<g>
		
			<rect x="129.729" y="-0.51" transform="matrix(0.7071 -0.7071 0.7071 0.7071 -14.6625 135.0996)" width="52.04" height="171.518" data-original="#000000" class="active-path" data-old_color="#000000" fill="#FFFFFF"/>
	</g>
</g><g>
	<g>
		<rect x="67.47" y="285.88" width="106.06" height="24.574" data-original="#000000" class="active-path" data-old_color="#000000" fill="#FFFFFF"/>
	</g>
</g><g>
	<g>
		<rect x="270.499" y="59.241" transform="matrix(0.7071 -0.7071 0.7071 0.7071 44.0569 276.885)" width="171.518" height="52.04" data-original="#000000" class="active-path" data-old_color="#000000" fill="#FFFFFF"/>
	</g>
</g><g>
	<g>
		<path d="M462.482,58.254L314.014,206.722L271,163.708V512h241V58.254H462.482z M357.675,456.627h-33.734v-30h33.734V456.627z     M357.675,371.254h-33.734v-30h33.734V371.254z M357.675,285.881h-33.734v-30h33.734V285.881z" data-original="#000000" class="active-path" data-old_color="#000000" fill="#FFFFFF"/>
	</g>
</g><g>
	<g>
		<path d="M67.508,340.455c0.821,28.529,24.268,51.489,52.992,51.489s52.171-22.959,52.992-51.489H67.508z" data-original="#000000" class="active-path" data-old_color="#000000" fill="#FFFFFF"/>
	</g>
</g></g> </svg>
