<?xml version="1.0" encoding="UTF-8"?><svg id="a" xmlns="http://www.w3.org/2000/svg" viewBox="0 0 360 110"><defs><style>.b{fill:#683817;}.c{fill:#fff;}.d{fill:#009d4e;}.e{fill:#a93439;}</style></defs><g><g><path class="e" d="M130.96,64.09h-16.18l-4.08,11.21h5.64v4.49h-15.7v-4.49h4.83l15.57-40.52h6.87l14.62,40.52h6.19v4.49h-20.94v-4.49h7.07l-3.89-11.21Zm-14.68-3.94h13.32l-6.32-18.29h-.27l-6.73,18.29Z"/><path class="e" d="M149.99,66.26v-26.71h-6.53v-4.49h20.19v4.49h-6.65v24.47c0,8.63,4.35,11.96,12.64,11.96,3.67,0,6.12-1.22,8.09-3.2,2.31-2.31,2.78-5.3,2.78-10.4v-22.83h-6.99v-4.49h18.41v4.49h-6.39v26.72c0,7.68-6.32,14.62-18,14.62-11.43-.01-17.55-6.06-17.55-14.63Z"/><path class="e" d="M193.35,64.5h4.08c4.96,9.11,8.09,12.17,14.41,12.17,5.3,0,8.5-2.72,8.5-7.41,0-5.51-5.78-7-11.9-8.77-7-1.97-14.48-4.35-14.48-13.53,0-6.66,5.57-12.98,14.07-12.98,3.81,0,8.5,1.63,11.01,4.76l1.43-4.55h4.49v15.5h-4.08c-4.15-8.84-8.09-11.49-13.19-11.49-4.35,0-7.07,2.72-7.07,6.8,0,6.05,5.98,7.41,12.24,9.04,6.87,1.7,14.14,3.81,14.14,12.85,0,7.82-6.39,14-15.09,14-5.03,0-9.72-1.77-12.44-4.9l-1.63,4.69h-4.49v-16.18Z"/><path class="e" d="M239.44,75.31h7.88V38.87h-2.99c-5.98,0-7.27,1.97-10.61,12.1h-3.19v-15.91h40.59v15.91h-3.2c-3.33-10.13-4.62-12.1-10.6-12.1h-2.99v36.44h7.89v4.49h-22.77v-4.49h0Z"/><path class="e" d="M276.56,75.31h7.54V39.55h-7.54v-4.49h22.09v4.49h-7.55v35.76h7.55v4.49h-22.09v-4.49Z"/><path class="e" d="M316.26,44.1h-.61v31.2h7.07v4.49h-18.97v-4.49h6.87V39.55h-6.87v-4.49h14.82l22.5,32.63h.61v-28.14h-7.07v-4.49h18.97v4.49h-6.87v41.33h-5.16l-25.29-36.78Z"/></g><g><path class="c" d="M101.33,101.8h2.29v-10.85h-2.29v-1.36h6.7v1.36h-2.29v10.85h2.29v1.36h-6.7v-1.36Z"/><path class="c" d="M109.45,101.8h1.51v-6.72h-1.51v-1.36h3.4v2.39c1.07-1.77,2.19-2.51,3.55-2.51,1.5,0,2.52,1.09,2.52,2.95v5.26h1.5v1.36h-4.82v-1.36h1.38v-4.56c0-.7-.17-1.3-.52-1.65-.27-.27-.64-.41-1.11-.41-1.16,0-2.45,1.14-2.45,3.03v3.59h1.38v1.36h-4.82v-1.37h-.01Z"/><path class="c" d="M122.8,102.33c-.91-.9-1.34-2.29-1.34-3.75s.54-3.09,1.42-3.98c.68-.68,1.55-1.05,2.58-1.05,1.38,0,2.29,.68,2.89,1.65v-4.72h-1.57v-1.48h3.5v12.8h1.38v1.36h-3.28v-1.94c-.7,1.42-1.84,2.12-3.09,2.12-.97,0-1.88-.39-2.49-1.01Zm5.58-3.91c0-1.88-.74-3.57-2.41-3.57-1.51,0-2.37,1.32-2.37,3.57s1.09,3.63,2.37,3.63c1.24,0,2.41-1.32,2.41-3.63Z"/><path class="c" d="M134.73,98.56c.06,2.33,1.07,3.49,2.89,3.49,1.16,0,2.02-.49,2.6-1.75h.99c-.54,2.02-2.02,3.05-4.1,3.05-2.89,0-4.51-2.08-4.51-4.8s1.96-4.99,4.64-4.99c2.82,0,4.08,2.52,4.02,5.01h-6.53Zm.03-.98h4.52c-.15-1.75-.74-2.95-2.19-2.95-1.3,0-2.17,.83-2.33,2.95Z"/><path class="c" d="M142.22,104.97h1.51v-9.9h-1.51v-1.36h3.4v2.17c.68-1.65,1.92-2.33,3.18-2.33,.99,0,1.79,.37,2.41,.99,.87,.87,1.26,2.21,1.26,3.75s-.52,2.97-1.38,3.83c-.64,.64-1.5,1.03-2.39,1.03-1.44,0-2.45-.76-3.03-1.77v3.58h1.98v1.36h-5.42v-1.35h0Zm8.1-6.78c0-2.29-.95-3.34-2.23-3.34-1.2,0-2.47,1.5-2.47,3.67,0,1.88,.82,3.34,2.41,3.34,1.47,0,2.29-1.28,2.29-3.67Z"/><path class="c" d="M156.08,98.56c.06,2.33,1.07,3.49,2.88,3.49,1.16,0,2.02-.49,2.6-1.75h.99c-.54,2.02-2.02,3.05-4.1,3.05-2.89,0-4.52-2.08-4.52-4.8s1.96-4.99,4.64-4.99c2.82,0,4.08,2.52,4.02,5.01h-6.51Zm.02-.98h4.52c-.14-1.75-.74-2.95-2.19-2.95-1.3,0-2.17,.83-2.33,2.95Z"/><path class="c" d="M163.89,101.8h1.51v-6.72h-1.51v-1.36h3.4v2.39c1.07-1.77,2.19-2.51,3.55-2.51,1.51,0,2.51,1.09,2.51,2.95v5.26h1.51v1.36h-4.82v-1.36h1.38v-4.56c0-.7-.16-1.3-.51-1.65-.27-.27-.64-.41-1.11-.41-1.15,0-2.45,1.14-2.45,3.03v3.59h1.38v1.36h-4.83v-1.37h0Z"/><path class="c" d="M177.23,102.33c-.91-.9-1.34-2.29-1.34-3.75s.54-3.09,1.42-3.98c.68-.68,1.54-1.05,2.57-1.05,1.38,0,2.29,.68,2.89,1.65v-4.72h-1.57v-1.48h3.5v12.8h1.38v1.36h-3.28v-1.94c-.7,1.42-1.83,2.12-3.09,2.12-.96,0-1.86-.39-2.48-1.01Zm5.58-3.91c0-1.88-.74-3.57-2.41-3.57-1.5,0-2.37,1.32-2.37,3.57s1.09,3.63,2.37,3.63c1.24,0,2.41-1.32,2.41-3.63Z"/><path class="c" d="M189.16,98.56c.06,2.33,1.07,3.49,2.89,3.49,1.15,0,2.02-.49,2.6-1.75h.99c-.54,2.02-2.02,3.05-4.1,3.05-2.89,0-4.51-2.08-4.51-4.8s1.96-4.99,4.64-4.99c2.83,0,4.08,2.52,4.02,5.01h-6.53Zm.02-.98h4.52c-.14-1.75-.74-2.95-2.19-2.95-1.3,0-2.16,.83-2.33,2.95Z"/><path class="c" d="M196.98,101.8h1.5v-6.72h-1.5v-1.36h3.4v2.39c1.07-1.77,2.19-2.51,3.55-2.51,1.5,0,2.52,1.09,2.52,2.95v5.26h1.51v1.36h-4.83v-1.36h1.38v-4.56c0-.7-.17-1.3-.52-1.65-.27-.27-.64-.41-1.11-.41-1.16,0-2.45,1.14-2.45,3.03v3.59h1.38v1.36h-4.82v-1.37h0Z"/><path class="c" d="M211.95,91.26v2.56h3.1v1.25h-3.1v5.57c0,.93,.27,1.38,1.14,1.38,.58,0,1.03-.54,1.44-1.63l.93,.39c-.54,1.81-1.63,2.56-2.95,2.56-1.65,0-2.5-.97-2.5-2.52v-5.75h-1.85v-1.25h1.85v-2.35l1.94-.21Z"/><path class="c" d="M220.14,98.52h1.24c1.51,2.76,2.45,3.69,4.37,3.69,1.61,0,2.58-.83,2.58-2.25,0-1.67-1.75-2.12-3.61-2.66-2.12-.6-4.39-1.32-4.39-4.1,0-2.02,1.69-3.94,4.27-3.94,1.16,0,2.58,.49,3.34,1.44l.44-1.38h1.36v4.7h-1.24c-1.26-2.68-2.46-3.49-4-3.49-1.32,0-2.14,.83-2.14,2.06,0,1.84,1.81,2.25,3.71,2.74,2.08,.51,4.29,1.15,4.29,3.89,0,2.37-1.94,4.25-4.58,4.25-1.53,0-2.95-.54-3.77-1.48l-.5,1.42h-1.36v-4.89h0Z"/><path class="c" d="M231.73,98.58c0-2.93,2.1-5.03,4.89-5.03,2.06,0,3.63,1.42,3.63,2.66,0,.97-.47,1.67-1.34,1.67s-1.28-.58-1.28-1.26c0-.55,.45-1.09,.8-1.24-.29-.45-.91-.83-1.9-.83-1.44,0-2.66,1.32-2.66,3.77s1.01,3.71,2.93,3.71c1.16,0,2.1-.68,2.58-2.02h.99c-.5,2.12-2,3.32-4.08,3.32-2.89,0-4.56-2.03-4.56-4.75Z"/><path class="c" d="M241.25,101.8h1.5v-11.32h-1.5v-1.48h3.44v7.07c1.07-1.78,2.15-2.47,3.51-2.47,1.51,0,2.52,1.09,2.52,2.95v5.26h1.51v1.36h-4.82v-1.36h1.38v-4.56c0-.7-.16-1.3-.51-1.65-.27-.27-.64-.41-1.11-.41-1.16,0-2.46,1.14-2.46,3.03v3.59h1.38v1.36h-4.82v-1.37h-.02Z"/><path class="c" d="M253.15,98.48c0-2.86,1.9-4.93,4.72-4.93s4.7,1.98,4.7,4.84-1.9,4.95-4.7,4.95c-2.95,0-4.72-1.97-4.72-4.86Zm7.28-.04c0-2.59-1.01-3.77-2.66-3.77s-2.47,1.18-2.47,3.77,1.01,3.8,2.66,3.8c1.6-.01,2.47-1.21,2.47-3.8Z"/><path class="c" d="M263.94,98.48c0-2.86,1.9-4.93,4.72-4.93s4.7,1.98,4.7,4.84-1.9,4.95-4.7,4.95c-2.95,0-4.72-1.97-4.72-4.86Zm7.27-.04c0-2.59-1.01-3.77-2.66-3.77s-2.47,1.18-2.47,3.77,1.01,3.8,2.66,3.8c1.61-.01,2.47-1.21,2.47-3.8Z"/><path class="c" d="M274.37,101.8h1.71v-11.32h-1.71v-1.48h3.65v12.8h1.71v1.36h-5.36v-1.36Z"/><path class="c" d="M284.29,101.8h2.29v-10.85h-2.29v-1.36h5.81c5.07,0,7.67,2.68,7.67,6.58s-2.29,6.99-7.49,6.99h-6v-1.36h0Zm6.02,0c3.46,0,4.99-1.51,4.99-5.63,0-3.61-1.55-5.22-5.2-5.22h-1.4v10.85h1.61Z"/><path class="c" d="M299.26,101.8h1.71v-6.72h-1.71v-1.36h3.65v8.08h1.71v1.36h-5.36v-1.36Zm1.21-11.4c0-.82,.54-1.4,1.34-1.4s1.34,.53,1.34,1.36-.53,1.38-1.34,1.38-1.34-.52-1.34-1.34Z"/><path class="c" d="M305.75,99.78h1.26c.51,1.5,1.69,2.56,3.01,2.56,1.11,0,1.59-.56,1.59-1.32,0-.82-.64-1.21-2.5-1.73-2.27-.64-3.2-1.42-3.2-2.93s1.32-2.8,3.26-2.8c.97,0,1.84,.37,2.29,1.09l.21-1.09h1.22v3.24h-1.24c-.64-1.38-1.24-2.23-2.51-2.23-.72,0-1.46,.41-1.46,1.2,0,.83,.72,1.26,2.41,1.71,2.18,.6,3.22,1.3,3.22,2.91,0,1.42-1.26,2.97-3.38,2.97-1.17,0-2.14-.49-2.74-1.24l-.23,1.24h-1.2v-3.58h-.01Z"/><path class="c" d="M317.73,91.26v2.56h3.09v1.25h-3.09v5.57c0,.93,.27,1.38,1.13,1.38,.58,0,1.03-.54,1.44-1.63l.93,.39c-.54,1.81-1.63,2.56-2.95,2.56-1.65,0-2.5-.97-2.5-2.52v-5.75h-1.86v-1.25h1.86v-2.35l1.95-.21Z"/><path class="c" d="M321.88,101.8h1.5v-6.72h-1.5v-1.36h3.4v2.19c.48-1.59,1.71-2.31,2.78-2.31s1.65,.72,1.65,1.61c0,.72-.54,1.34-1.24,1.34s-1.3-.43-1.3-1.22c0-.1,.02-.23,.04-.35-.93-.04-1.57,1.01-1.9,2.25v4.58h1.79v1.36h-5.23v-1.37h0Z"/><path class="c" d="M330.56,101.8h1.71v-6.72h-1.71v-1.36h3.65v8.08h1.71v1.36h-5.36v-1.36Zm1.22-11.4c0-.82,.54-1.4,1.34-1.4s1.34,.53,1.34,1.36-.54,1.38-1.34,1.38-1.34-.52-1.34-1.34Z"/><path class="c" d="M336.87,98.58c0-2.93,2.1-5.03,4.88-5.03,2.07,0,3.63,1.42,3.63,2.66,0,.97-.48,1.67-1.34,1.67s-1.28-.58-1.28-1.26c0-.55,.46-1.09,.81-1.24-.29-.45-.91-.83-1.9-.83-1.44,0-2.66,1.32-2.66,3.77s1.01,3.71,2.93,3.71c1.16,0,2.11-.68,2.58-2.02h.99c-.49,2.12-2,3.32-4.08,3.32-2.89,0-4.56-2.03-4.56-4.75Z"/><path class="c" d="M349.84,91.26v2.56h3.09v1.25h-3.09v5.57c0,.93,.27,1.38,1.13,1.38,.58,0,1.03-.54,1.45-1.63l.93,.39c-.54,1.81-1.63,2.56-2.95,2.56-1.65,0-2.49-.97-2.49-2.52v-5.75h-1.86v-1.25h1.86v-2.35l1.93-.21Z"/></g></g><g><path class="c" d="M68.85,102.55c-.21-8.24,0-24.56-.05-25.07h-1.82c-.03-2.66-.06-8.67-.06-8.67,0,0,.12-7.94-2.74-14.35s-8.1-7.62-8.1-7.62c.07,0-.37-1.03,.42-1.03-.22-.05-1.28,.03-1.28-.02,0-1.56-.02-5.34-.02-5.34v-1.37s.04-.1,.07-.16h-6.13c.04,.08,.07,.15,.11,.23v1.37s-.03,3.77-.03,5.34c0,.06-1.07-.03-1.28,.02,.79,0,.34,1.03,.42,1.03,0,0-4.89,.97-8.23,7.55-3.35,6.59-2.8,20.38-2.85,23.05l-1.68,.02c-.06,.51,.13,16.77-.1,25.02h3.56v-7.13s.37-2.09,2.6-2.09,2.78,2.09,2.78,2.09v7.13h4.12v-9.29h7.55v9.29h3.76v-7.13s.36-2.09,2.6-2.09,2.78,2.09,2.78,2.09v7.13h3.6Zm-29.03-30.44s.21-1.34,1.49-1.34,1.59,1.34,1.59,1.34v4.71h-3.08v-4.71Zm3.64,16.86h-4.44v-5.94s.31-1.67,2.15-1.67,2.29,1.67,2.29,1.67v5.94Zm-.49-27.83c-.05,.28-.1,.64-.15,.97h-1.68c.07-.32,.13-.7,.2-1.09,.2-1.15,.44-1.87,.44-1.87h1.71s-.4,1.27-.52,1.99Zm14.85-1.92s.18,.63,.33,1.77c.05,.4,.09,.79,.12,1.12h-1.89c-.08-.52-.19-1.12-.28-1.46-.19-.72-.25-1.43-.25-1.43h1.97Zm-6.56,0h1.94l-.05,2.89h-1.91l.02-2.89Zm-.79,12.86s.42-1.36,1.69-1.36,1.78,1.36,1.78,1.36v4.73h-3.47v-4.73Zm-4.2-11.02c.15-1.14,.33-1.77,.33-1.77h1.98s-.07,.71-.26,1.43c-.09,.34-.18,.9-.26,1.4h-1.89c.02-.32,.05-.68,.1-1.06Zm-1.12,11.02s.21-1.34,1.49-1.34,1.59,1.34,1.59,1.34v4.73h-3.08v-4.73Zm5.62,16.89h-4.44v-6s.3-1.67,2.14-1.67,2.29,1.67,2.29,1.67v6h0Zm7.31,0h-4.44v-6s.3-1.67,2.14-1.67,2.29,1.67,2.29,1.67v6h0Zm1.19-12.16h-3.08v-4.73s.21-1.34,1.49-1.34,1.59,1.34,1.59,1.34v4.73Zm5.32-4.73v4.73h-3.08v-4.73s.21-1.34,1.49-1.34c1.28,0,1.59,1.34,1.59,1.34Zm-1.94-12.84s.24,.71,.44,1.87c.06,.37,.13,.71,.18,1.01h-1.67c-.04-.3-.08-.63-.13-.89-.13-.73-.53-1.98-.53-1.98h1.71Zm-1.69,29.72v-6s.3-1.67,2.14-1.67,2.29,1.67,2.29,1.67v6h-4.43Z"/><path class="d" d="M71.01,13.18c.01-.34,.01-.68,.01-1.02-.03-1.36-.17-2.72-.35-4.07-.15-1.13-.26-2.32-.59-3.42-.02-.07-.17-.63-.29-.61-2.87,.27-6.4,1.74-8.9,3.06-6.07,3.21-9.2,9.97-8.62,16.65,.16,1.77,.44,3.54,.89,5.27,.22,.82,.89,4.51,.9,4.51,5.18-1.27,11.38-5.92,14.25-10.69,1.46-2.43,2.32-5.32,2.6-8.2,.05-.49,.08-.99,.1-1.48Z"/><g><path class="e" d="M48.18,76.81v-4.73s-.31-1.34-1.59-1.34-1.49,1.34-1.49,1.34v4.73h3.08Z"/><path class="e" d="M59.22,76.81v-4.73s-.31-1.34-1.59-1.34-1.49,1.34-1.49,1.34v4.73h3.08Z"/><path class="e" d="M64.55,76.81v-4.73s-.31-1.34-1.59-1.34-1.49,1.34-1.49,1.34v4.73h3.08Z"/><path class="e" d="M53.9,76.81v-4.73s-.5-1.36-1.77-1.36-1.7,1.36-1.7,1.36v4.73h3.47Z"/><path class="e" d="M42.86,76.81v-4.71s-.31-1.34-1.59-1.34-1.49,1.34-1.49,1.34v4.71h3.08Z"/></g><g><path class="e" d="M43.41,88.97v-5.94s-.45-1.67-2.29-1.67-2.14,1.67-2.14,1.67v5.94h4.43Z"/><path class="e" d="M50.73,88.97v-6s-.45-1.67-2.29-1.67-2.14,1.67-2.14,1.67v6h4.43Z"/><path class="e" d="M58.04,88.97v-6s-.45-1.67-2.29-1.67-2.14,1.67-2.14,1.67v6h4.43Z"/><path class="e" d="M65.35,88.97v-6s-.45-1.67-2.29-1.67-2.14,1.67-2.14,1.67v6h4.43Z"/></g><path class="e" d="M44.37,103.05v-7.64s-.55-2.09-2.78-2.09-2.6,2.09-2.6,2.09v7.64h5.38Z"/><path class="e" d="M65.17,103.05v-7.63s-.55-2.09-2.78-2.09-2.6,2.09-2.6,2.09v7.63h5.38Z"/><g><polygon class="e" points="53.1 61.9 53.15 59 51.21 59 51.19 61.9 53.1 61.9"/><path class="e" d="M56.35,61.9h1.88c-.03-.33-.07-.72-.12-1.12-.15-1.15-.33-1.78-.33-1.78h-1.97s.07,.71,.25,1.43c.1,.35,.2,.94,.29,1.47Z"/><path class="e" d="M48.01,61.9c.08-.5,.17-1.06,.26-1.4,.19-.73,.26-1.43,.26-1.43h-1.97s-.18,.63-.33,1.77c-.05,.38-.09,.74-.11,1.06h1.89Z"/><path class="e" d="M42.78,61.9c.05-.34,.1-.7,.15-.98,.13-.72,.53-1.99,.53-1.99h-1.71s-.24,.71-.44,1.87c-.07,.39-.14,.77-.2,1.1h1.67Z"/><path class="e" d="M61.55,61.9h1.68c-.06-.3-.12-.64-.18-1.01-.2-1.15-.44-1.87-.44-1.87h-1.71s.4,1.26,.53,1.98c.04,.27,.09,.59,.12,.9Z"/></g><path class="e" d="M55.15,40.44s.02,3.77,.02,5.34c0,.05,1.06-.03,1.28,.03-.79,0-.35,1.03-.42,1.03,0,0,5.24,1.22,8.1,7.62,2.86,6.41,2.74,14.36,2.74,14.36,0,0,.02,6,.05,8.67h1.82c.06,.52-.16,16.83,.06,25.07,8.86-6.3,17.06-13.4,22.37-23.4,4.71-8.88,7.31-21.69,4.38-31.66-4.72-16.12-32.04-27.58-40.4-8.41v1.35Z"/><path class="e" d="M49.19,40.51s-.03,3.77-.03,5.34c0,.06-1.06-.03-1.28,.02,.79,0,.34,1.03,.42,1.03,0,0-4.89,.97-8.23,7.55-3.35,6.58-2.8,20.38-2.84,23.05l-1.68,.02c-.06,.51,.13,16.83-.1,25.06-8.84-6.31-17.02-13.43-22.3-23.45-4.69-8.89-7.26-21.71-4.32-31.67,4.75-16.11,32.07-27.51,40.39-8.33l-.03,1.38Z"/><rect class="e" x="33.79" y="64.19" width="36.76" height="1.5"/><rect class="e" x="33.79" y="66.51" width="36.76" height="1.5"/><rect class="e" x="50.48" y="38.92" width="1.08" height="6.95"/><rect class="e" x="52.77" y="38.92" width="1.08" height="6.95"/><rect class="e" x="48.93" y="93.26" width="6.67" height="9.73"/><path class="b" d="M52.64,35.73s-.62-22.68-21.45-30.97c-1.17-.47-8.29,1.53-7.14,2.07,23.02,6.5,26.48,24.69,27.63,28.9h.96Z"/></g></svg>