<svg width="3186" height="1514" viewBox="0 0 3186 1514" fill="none" xmlns="http://www.w3.org/2000/svg">
<g clip-path="url(#clip0_7504_92483)">
<path d="M0 1189.9C2.01 1183.12 6.74 1182.09 13.33 1182.09C573.99 1182.25 1134.65 1182.26 1695.32 1182.06C1704.18 1182.06 1712.66 1188.44 1721.68 1183.37C1725.42 1201.63 1723.24 1204.51 1705.19 1205.02C1701.05 1205.14 1696.91 1205.15 1692.76 1205.15C1134.17 1205.15 575.58 1205.15 16.99 1205.13C10.84 1205.13 3.98 1207.01 0 1199.85V1189.91L0 1189.9Z" fill="#296436"/>
<path d="M3185.15 1080.56C3179.5 1085.21 3178.78 1092.56 3175.33 1098.43C3165.46 1115.26 3151.89 1126.47 3131.37 1125.09C3124.52 1124.63 3118.18 1126.61 3111.31 1126.34C3096.11 1125.75 3089.3 1113.57 3078.36 1105.6C3075 1111.13 3071.56 1116.24 3068.69 1121.67C3066.07 1126.62 3061.71 1125.5 3057.81 1125.21C3052.8 1124.84 3054.12 1120.55 3054.11 1117.51C3054.02 1092.66 3054.15 1067.82 3053.96 1042.97C3053.92 1037.8 3055.35 1035.49 3060.93 1035.6C3065.89 1035.7 3067.56 1037.12 3068.92 1042.34C3075.64 1068.24 3084.47 1092.3 3111.21 1105.92C3129.88 1115.43 3153.4 1101.73 3160.41 1087.75C3168.77 1071.09 3160.51 1050.03 3142.87 1040.7C3129.59 1033.67 3115.46 1028.16 3101.26 1024.69C3072.82 1017.74 3060.38 997.99 3056.32 972.27C3052.77 949.82 3058.28 928.19 3073.45 910.33C3088.41 892.73 3119.43 890.25 3140.86 905.19C3148.33 910.39 3153.59 913.92 3157.71 902.55C3159.74 896.94 3164.29 895.65 3169.71 896.54C3177.23 897.78 3173.72 903.71 3173.77 907.47C3174.04 926.93 3173.92 946.39 3173.6 965.85C3173.54 969.69 3176.26 975.48 3168.48 976.04C3161.75 976.53 3159.09 973.38 3157.72 967.17C3154.97 954.69 3149.78 943.3 3142.44 932.62C3130.65 915.45 3102.33 911.93 3089.85 920.61C3078.29 928.65 3074.38 940.71 3076.09 953.84C3077.53 964.86 3083.74 972.95 3095.71 976.19C3112.04 980.61 3128.15 985.91 3144.16 991.4C3163.02 997.86 3177.38 1008.91 3181.08 1030.11C3181.44 1032.18 3183.75 1033.92 3185.15 1035.81V1080.54V1080.56Z" fill="#296436"/>
<path d="M1011.77 2.05C1088.25 0.570002 1164.73 -1.61 1241.21 1.87C1263.03 1.87 1284.92 -0.129998 1306.56 4.48C1307.36 4.65 1308.22 4.61 1309.04 4.54C1344.14 1.69 1379.13 6.2 1414.1 7.39C1458.25 8.9 1502.42 7.17 1546.47 9.78C1566.24 10.95 1586.18 13.3 1605.2 19.76C1618.53 24.29 1630.73 31.4 1633.51 46.14C1636.57 62.34 1629.26 74.07 1614.53 82.8C1589.05 97.89 1560.97 100.19 1532.84 100.86C1482.38 102.05 1431.92 96.81 1381.54 97.5C1328.27 98.24 1275.2 103.64 1227.88 132.99C1194.63 153.61 1165.48 178.86 1138.96 207.3C1107.47 241.07 1080.2 278.11 1054.21 316.2C1020.18 366.07 989.259 417.81 959.519 470.29C958.749 471.65 958.229 473.14 957.049 475.77C982.489 477.24 1006.99 476.18 1031.2 473.75C1056.55 471.21 1081.67 466.19 1105.68 456.76C1115.08 453.07 1123.03 448.13 1129.19 440.03C1135.65 431.53 1143.79 424.1 1149.08 414.98C1156.16 402.76 1167.43 400.47 1179.14 400.07C1222.39 398.59 1265.6 393.93 1311.38 397.92C1297.03 407.75 1284.12 416.4 1271.42 425.33C1239.95 447.46 1210.17 471.71 1180.14 495.75C1119.48 544.29 1068.38 601.02 1025.82 665.66C1014.77 682.44 1005 700.08 994.809 717.42C993.209 720.14 993.139 724.52 988.279 722.05C984.629 720.2 980.609 718.56 983.289 712.79C988.099 702.45 992.329 691.85 997.009 681.45C1027.08 614.63 1063.25 551.04 1099.77 487.64C1101.38 484.84 1102.75 481.9 1104.6 478.33C1097.35 474.95 1090.62 478.49 1085.33 479.87C1044.24 490.54 1002.4 489.28 960.629 489.22C952.309 489.21 947.689 491.31 943.309 499.16C905.169 567.52 861.049 631.79 809.409 690.76C758.999 748.33 702.279 798.61 637.599 839.77C578.999 877.06 516.089 904.24 448.699 921.06C386.329 936.63 322.669 940.75 259.059 935.97C185.789 930.46 118.219 906.61 62.1691 857.17C28.9691 827.89 9.46907 791.19 15.1391 745.46C18.9491 714.75 43.4291 679.41 78.6591 671.85C106.449 665.89 135.219 668.06 159.269 690.5C184.569 714.11 186.049 770.31 138.329 784.88C122.349 789.76 123.199 791.47 125.649 807.97C135.309 873.06 210.169 913.13 256.089 921.1C314.999 931.32 372.189 924.05 427.789 903.33C467.469 888.54 504.369 868.15 536.989 841.21C602.059 787.47 656.879 724.59 704.299 654.64C737.999 604.93 768.999 553.74 799.099 501.91C800.309 499.82 801.319 497.62 803.359 493.65C785.099 493.65 768.339 493.97 751.609 493.43C747.209 493.29 738.969 497.7 738.859 489.01C738.739 479.48 747.499 484.07 752.149 483.89C765.779 483.37 779.449 483.87 793.109 484.13C803.689 484.33 811.039 480.83 816.619 470.71C845.079 419.17 878.699 371.15 915.859 325.39C959.879 271.19 1011.46 225.4 1069.49 187.4C1128.8 148.56 1193.43 120.61 1262.66 103.79C1277.66 100.15 1293.47 99.13 1307.81 92.7C1306.39 87.94 1303.37 89.03 1301.26 89.13C1267.39 90.74 1233.6 87.99 1199.83 86.47C1130.77 83.37 1061.69 83.28 992.649 84.97C966.269 85.61 939.789 85.02 913.509 86.94C877.409 89.59 841.169 89.53 805.219 92.34C769.539 95.14 733.699 98.01 698.149 103.54C676.459 106.91 654.369 108.24 632.539 111.41C601.599 115.89 570.649 120.13 540.079 126.79C472.659 141.46 405.559 157.7 343.639 189.03C309.629 206.24 276.129 225.35 250.689 255.06C199.119 315.29 199.209 398.74 264.069 451.79C300.779 481.81 343.109 498.49 389.759 503.9C458.959 511.92 527.549 507.33 593.949 485.92C659.449 464.79 716.709 430.31 755.529 371.28C773.429 344.06 783.189 314.06 786.379 280.97C788.569 258.19 784.819 236.06 785.829 213.65C785.959 210.73 783.849 206.74 789.139 205.82C794.269 204.93 794.559 209.86 795.079 212.05C800.439 234.8 802.559 257.53 799.539 281.19C796.439 305.57 789.709 328.4 781.659 351.47C763.299 404.1 728.669 443.84 686.029 477.59C632.189 520.21 570.539 546.5 503.309 557.92C463.019 564.77 422.149 566.07 380.889 559.57C329.559 551.49 285.449 530.57 248.729 494.61C225.949 472.3 210.759 445.2 203.439 413.55C191.949 363.86 200.129 317.12 222.959 272.59C235.389 248.35 253.749 228.11 273.599 209.81C314.939 171.7 362.939 143.59 414.029 120.66C468.799 96.08 525.219 76.35 583.439 61.24C617.149 52.49 650.989 44.35 685.099 37.77C713.319 32.33 741.719 27.35 770.399 24.22C801.109 20.87 831.599 15.53 862.309 12.28C887.529 9.61 912.949 8.71 938.269 7.02C962.769 5.38 987.279 3.72 1011.78 2.07L1011.77 2.05Z" fill="#296436"/>
<path d="M2526.71 1182.25C2740.87 1182.25 2955.03 1182.25 3169.19 1182.25C3182.17 1182.25 3186.45 1188.53 3182.65 1201.37C3181.73 1204.47 3180.06 1205.14 3177.38 1205.13C3173.24 1205.12 3169.1 1205.15 3164.95 1205.15C2742.43 1205.15 2319.91 1205.15 1897.39 1205.15C1893.66 1205.15 1889.89 1204.81 1886.21 1205.26C1870.55 1207.19 1866.51 1202.51 1869.63 1186.75C1870.44 1182.66 1872.43 1182.42 1875.53 1182.41C1881.33 1182.41 1887.13 1182.24 1892.93 1182.24C2104.19 1182.23 2315.45 1182.24 2526.71 1182.24V1182.25Z" fill="#296436"/>
<path d="M2077.54 1093.68C2064.43 1113.04 2054.18 1123.6 2046.79 1125.35C2046.79 1082.52 2046.87 1040.4 2046.71 998.29C2046.68 991.15 2051.44 992.05 2055.91 991.47C2062.28 990.64 2063.23 994.23 2063.95 999.43C2068.22 1030.48 2076.32 1060.16 2097.87 1084.25C2120.1 1109.1 2151.13 1114.24 2179.49 1097.97C2205.69 1082.94 2211.2 1054.83 2206.69 1026.24C2202.82 1001.72 2187.48 987.82 2164.07 981.58C2141.24 975.49 2119.42 966.68 2098.28 956.18C2062.16 938.23 2044.56 899.64 2053.1 859.88C2055.37 849.29 2055.08 838.25 2058.08 827.47C2070.04 784.52 2118.64 761.55 2159.3 780.39C2172.18 786.36 2184.92 792.69 2193.4 806.14C2197.35 798.41 2201.5 792.26 2203.71 785.47C2206.2 777.83 2211.65 779.72 2216.59 779.97C2222.74 780.28 2220.38 785.46 2220.34 788.5C2219.92 823.56 2225.92 858.46 2222.97 893.58C2222.65 897.39 2224.58 902.15 2217.49 901.83C2211.87 901.58 2208.84 900.74 2207.77 893.84C2204.26 871.08 2197.6 849.15 2184.89 829.62C2169.04 805.26 2146.15 794.64 2117.45 797.56C2098.38 799.5 2089.09 814.55 2083.28 829.72C2076.25 848.1 2074.82 867.76 2086.98 885.72C2093.27 895 2102.28 900.28 2112.48 904.18C2134.45 912.58 2156.92 919.5 2178.7 928.56C2213.44 943.01 2231.85 967.04 2233.44 1005.46C2234.42 1029.29 2237.89 1052.8 2228.02 1075.57C2215.52 1104.41 2193.89 1121.46 2162.93 1127.85C2139.13 1132.77 2118.79 1123.34 2099.05 1113.45C2091.35 1109.59 2086.11 1100.09 2077.56 1093.68H2077.54Z" fill="#296436"/>
<path d="M117.28 1329.1C115.15 1341.46 111.8 1353.75 111.12 1366.19C109.41 1397.42 102.4 1427.8 97.8498 1458.57C95.8698 1471.95 92.9298 1485.2 91.3398 1498.61C90.4198 1506.33 86.5998 1508.51 79.7898 1507.77C73.0798 1507.04 64.6198 1511.1 62.6898 1499.19C57.3898 1466.4 51.2898 1433.74 45.5998 1401.02C38.3698 1359.39 31.1698 1317.75 24.1298 1276.08C23.2698 1271.01 20.0598 1263.55 24.7498 1261.1C31.9398 1257.35 41.0998 1258.86 48.9798 1260.71C51.3198 1261.26 52.9198 1268.21 53.4998 1272.41C57.9098 1304.68 61.9298 1337 66.1798 1369.28C68.7498 1388.8 71.4298 1408.31 74.3098 1427.79C74.6198 1429.92 76.6198 1431.79 79.0898 1435.85C83.0298 1412.71 86.2398 1391.91 88.2998 1370.88C91.7998 1335.06 99.3498 1299.83 105.87 1264.49C107.57 1255.29 117.82 1262.04 123.99 1260.62C132.12 1258.75 132.19 1265.95 132.93 1270.76C135.8 1289.45 137.99 1308.25 140.73 1326.96C145.5 1359.54 150.46 1392.09 155.43 1424.64C155.82 1427.18 154.71 1431.18 159.12 1431.19C163.56 1431.2 162.49 1427.14 162.83 1424.64C166.91 1394.05 171.44 1363.5 174.62 1332.81C176.9 1310.74 182.82 1289.12 182.5 1266.76C182.43 1261.98 185.42 1260.8 189.74 1260.31C214.03 1257.55 215.38 1259.01 211.07 1283.46C198.43 1355.21 185.74 1426.96 173.35 1498.76C171.11 1511.75 160.58 1507.6 153.23 1509.21C145.18 1510.97 145.92 1504.3 145.05 1498.86C140.88 1472.9 135.58 1447.11 132.12 1421.07C130.14 1406.13 125.33 1391.63 125.57 1376.37C125.82 1360.3 118.53 1345.35 117.27 1329.11L117.28 1329.1Z" fill="#C0A361"/>
<path d="M2459.87 940.05C2468.67 923.33 2476.45 908.65 2491.47 901.82C2522 887.94 2555.47 897.1 2566.22 938.42C2574.43 969.97 2571.46 1002.15 2571.5 1034.16C2571.52 1052.37 2571.12 1070.58 2571.22 1088.8C2571.26 1096.08 2570.13 1104.71 2582.79 1101.52C2585.59 1100.81 2589.38 1105.12 2592.7 1105.09C2600.83 1105 2597.8 1110.64 2598.4 1114.51C2599.41 1120.98 2595.15 1120.61 2590.8 1120.6C2566.77 1120.53 2542.75 1120.37 2518.73 1120.72C2512.06 1120.82 2509.36 1119.45 2509.26 1112.02C2509.15 1104.32 2512.56 1103.3 2518.86 1103.04C2538.01 1102.24 2539.16 1100.97 2539.21 1082.37C2539.29 1050.5 2539.27 1018.62 2539.23 986.74C2539.21 971.14 2537.18 955.76 2531.19 941.34C2522.62 920.71 2490.76 922.6 2480.14 936.22C2467.72 952.15 2460.6 970.16 2460.08 990.07C2459.3 1020.26 2459.86 1050.49 2459.93 1080.71C2459.98 1100.47 2460.02 1100.95 2479.79 1102.85C2487.69 1103.61 2486.19 1108.21 2486.64 1113.03C2487.2 1118.99 2485.09 1120.77 2479.07 1120.7C2454.22 1120.38 2429.37 1120.53 2404.51 1120.6C2400.07 1120.61 2396.34 1120.76 2396.77 1114.35C2397.11 1109.24 2396.35 1105.85 2404.04 1104.99C2427.39 1102.39 2427.33 1101.76 2427.32 1078.33C2427.32 993.88 2427.33 909.43 2427.3 824.98C2427.3 802.86 2425.62 801.08 2404.05 799.88C2400.32 799.67 2395.79 800.35 2396.97 794.52C2397.97 789.58 2393.15 782.9 2400.82 779.87C2403.8 778.69 2407.07 777.52 2410.2 777.56C2423.01 777.76 2435.73 776.9 2448.34 774.82C2457.17 773.37 2460.27 775.71 2460.16 785.59C2459.57 836.09 2459.89 886.59 2459.89 940.05H2459.87Z" fill="#296436"/>
<path d="M862.98 948.72C861.56 985.25 865.36 1021.33 875.96 1056.16C882.38 1077.25 894.95 1095.87 917.8 1102.44C957.68 1113.91 992.18 1096.72 1006.61 1054.53C1011.9 1039.08 1017.99 1023.37 1016.91 1006.35C1016.69 1002.85 1018.22 1000.47 1022.01 1001.64C1027.13 1003.21 1033.88 1002.38 1034.54 1010.82C1035.39 1021.63 1032.19 1031.87 1029.55 1041.82C1021.05 1073.85 1008.05 1103.81 975.56 1118.72C931.81 1138.79 889.99 1127.79 858.19 1087.55C835.59 1058.95 822.85 1026.06 817.66 989.6C812.06 950.22 814.87 911.55 828.72 875.08C842.95 837.58 861.08 801.14 900.67 782.29C926.31 770.09 968.86 775 988.31 796.85C994.38 803.67 1003.38 799.83 1006.81 787.95C1008.9 780.73 1011.01 776.4 1019.53 776.97C1024.91 777.33 1026.79 779.08 1026.79 784.27C1026.77 804.93 1026.29 825.62 1027.27 846.24C1028.19 865.53 1030.48 884.75 1029.47 904.1C1029.25 908.34 1031.02 913.27 1023.74 914.15C1017.4 914.92 1015.41 912.98 1013.9 906.8C1009.6 889.23 1006.17 871.37 999.3 854.49C990.37 832.54 980.36 811.38 956.93 801.02C936.48 791.98 906.69 797.49 892.93 817.36C875.65 842.3 869.58 870.43 864.94 899.6C862.32 916.08 864.53 932.42 862.96 948.73L862.98 948.72Z" fill="#296436"/>
<path d="M1361.48 1089.61C1350.18 1110.94 1333.78 1124.62 1310.23 1127.63C1281.03 1131.36 1255.43 1107.47 1253.49 1075.44C1251.11 1036.15 1252.95 996.81 1252.43 957.49C1252.38 953.77 1252.55 950.03 1252.4 946.32C1251.83 932.68 1248.09 929.36 1234.81 928.94C1230.12 928.79 1222.72 932.76 1222.88 922.01C1223.01 913.34 1223.35 906.82 1234.44 906.51C1247.98 906.13 1261.53 905.21 1275.01 903.9C1283.46 903.08 1285.29 906.47 1285.23 914.35C1284.89 960.3 1285 1006.25 1285.12 1052.2C1285.14 1059.17 1284.99 1066.4 1286.68 1073.06C1289.91 1085.81 1299.43 1098.41 1314.18 1098.37C1333.87 1098.32 1345.46 1087.5 1352.12 1070.68C1359.37 1052.37 1361.97 1033.03 1361.46 1013.21C1360.95 993.35 1361.32 973.47 1361.32 953.6C1361.32 929.92 1360.26 928.84 1337.24 929.04C1336.41 929.04 1335.56 928.93 1334.76 929.09C1325.81 930.87 1324.58 926.01 1325.02 918.64C1325.41 912.04 1323.73 905.19 1334.56 906.32C1351.06 908.03 1367.29 903.09 1383.91 903.7C1392.82 904.02 1394.72 906.63 1394.65 915.07C1394.25 964.74 1394.44 1014.42 1394.44 1064.1C1394.44 1068.24 1394.37 1072.38 1394.55 1076.52C1395.28 1092.63 1397.61 1095.17 1413.45 1095.31C1420.74 1095.38 1425.61 1095.53 1425.35 1105.54C1425.11 1114.86 1421.55 1118.35 1413.16 1117.86C1398.31 1117 1383.89 1121.86 1368.93 1120.65C1362.98 1120.17 1361.03 1118.87 1361.36 1112.97C1361.8 1105.21 1361.47 1097.41 1361.47 1089.62L1361.48 1089.61Z" fill="#296436"/>
<path d="M1492.85 940.09C1500.04 928.19 1505.61 918.65 1513.4 910.63C1538.91 884.36 1580.13 894.71 1593.59 928.69C1600.98 947.36 1604.07 966.94 1603.75 987.2C1603.25 1018.66 1603.6 1050.14 1603.62 1081.6C1603.63 1102.11 1603.59 1102.69 1623.22 1105.01C1629.83 1105.79 1631.15 1107.42 1631.38 1113.61C1631.68 1121.87 1626.61 1120.59 1621.74 1120.59C1597.71 1120.59 1573.68 1120.4 1549.65 1120.71C1543.41 1120.79 1540.37 1119.15 1539.9 1112.53C1539.34 1104.64 1544.46 1105.66 1549.37 1105.25C1566.36 1103.84 1571.11 1098.81 1571.12 1082.33C1571.16 1047.55 1571.12 1012.77 1571.09 977.99C1571.09 965.63 1567.94 953.94 1564.26 942.21C1558.07 922.52 1530 918.67 1516.63 932.26C1503.82 945.28 1495.73 961.35 1495.03 979.2C1493.64 1015.17 1494.19 1051.22 1494.18 1087.24C1494.18 1099.3 1499.83 1105 1512.26 1105.21C1518.51 1105.31 1521.96 1105.81 1521.89 1113.66C1521.82 1121.93 1516.93 1120.57 1512.11 1120.58C1488.49 1120.59 1464.88 1120.51 1441.26 1120.66C1435.81 1120.7 1432.04 1120.64 1431.87 1113.17C1431.71 1106 1434.64 1105.34 1440.55 1105.2C1456.32 1104.81 1461.25 1099.86 1461.31 1084.28C1461.48 1040.39 1461.44 996.5 1461.3 952.61C1461.26 938.73 1456.22 931.49 1441.02 929.35C1428.08 927.53 1433.09 919.19 1432.46 912.91C1431.51 903.4 1439.25 906.91 1443.73 906.45C1457.22 905.06 1470.8 904.5 1484.27 902.9C1491 902.1 1493.18 904.18 1492.91 910.71C1492.55 919.39 1492.82 928.1 1492.82 940.13L1492.85 940.09Z" fill="#296436"/>
<path d="M1835.11 559.51C1842.28 547.81 1848.77 538.59 1856.45 530C1877.21 506.78 1914.34 515.59 1928.71 537.56C1941.22 556.68 1943.64 578.14 1944.33 599.66C1945.42 633.56 1944.61 667.52 1944.62 701.46C1944.62 719.11 1946.46 721.6 1963.8 722.4C1970.4 722.7 1971.75 724.54 1972.05 730.86C1972.43 738.71 1968.22 738.44 1962.93 738.43C1938.91 738.34 1914.89 738.24 1890.87 738.47C1884.91 738.53 1881.86 737.5 1881.95 730.45C1882.03 723.98 1883.65 722.25 1890.34 722.3C1904.92 722.39 1912.03 719.22 1912.12 700.35C1912.28 666.41 1912.54 632.47 1911.93 598.55C1911.74 588.2 1909.36 577.77 1907.01 567.61C1904.88 558.38 1901.47 548.31 1890.65 546.86C1877.24 545.07 1862.7 543.82 1853.37 557.09C1843.97 570.45 1837.54 585.35 1837.22 601.95C1836.6 634.61 1836.47 667.29 1836.31 699.96C1836.22 718.43 1837.97 720.66 1856.81 722.45C1863.64 723.1 1862.06 727.01 1862.42 730.86C1862.84 735.42 1862.67 738.57 1856.37 738.5C1831.53 738.19 1806.68 738.24 1781.83 738.5C1775.98 738.56 1775.06 735.93 1775.14 731C1775.22 726.06 1775.14 722.94 1782.02 722.43C1801.41 720.98 1804.16 717.44 1804.18 698.02C1804.21 657.46 1804.24 616.9 1804.18 576.35C1804.16 558.26 1799.02 551.08 1781.18 548.72C1771.28 547.41 1775.95 541.23 1775.47 537.15C1774.97 532.88 1772.98 526.81 1781.41 526.49C1797.02 525.9 1812.61 524.86 1828.19 523.81C1833.57 523.45 1835.47 525.36 1835.21 530.85C1834.79 539.71 1835.1 548.6 1835.1 559.54L1835.11 559.51Z" fill="#296436"/>
<path d="M1291.09 707.74C1283.68 715.09 1279.83 722.7 1273.88 728.76C1259.54 743.37 1242.35 748.4 1223.35 743.8C1202.25 738.69 1190.66 722.26 1186.51 702.23C1179.68 669.27 1184.72 635.63 1183.55 602.3C1183.13 590.31 1183.77 578.28 1183.4 566.28C1182.94 551.35 1179.93 548.67 1165.09 548.01C1160.59 547.81 1154.34 550.22 1154.63 541.75C1154.84 535.54 1152.47 528.54 1163.1 527.98C1177.37 527.23 1191.59 525.33 1205.81 523.7C1213.67 522.8 1216.27 525.42 1216.2 533.78C1215.79 582.22 1215.91 630.67 1216.09 679.11C1216.16 699.23 1226.04 713.49 1240.35 715.2C1260.79 717.65 1276.32 707.23 1282.94 687.68C1289.01 669.74 1291.61 651.53 1291.19 632.62C1290.71 611.1 1291.19 589.56 1291.1 568.03C1291.03 550.03 1286.85 546.16 1268.96 546.67C1263.9 546.81 1256.95 550.46 1257.46 539.85C1257.83 531.98 1256.91 524.88 1268.58 526.19C1283.41 527.86 1298.16 525.34 1312.8 523.36C1321.78 522.14 1323.84 524.95 1323.77 533.67C1323.36 582.52 1323.58 631.38 1323.58 680.24C1323.58 683.14 1323.55 686.04 1323.58 688.94C1323.8 709.08 1326.25 712.41 1345.96 715C1351.36 715.71 1353.68 717.07 1352.59 722.23C1351.76 726.15 1355.76 730.95 1347.33 733.29C1330.31 738.02 1313.2 737.3 1296.05 737.98C1291.08 738.18 1291.08 734.86 1291.09 731.39C1291.11 724.11 1291.09 716.82 1291.09 707.75V707.74Z" fill="#296436"/>
<path d="M2287.81 1359.27C2314.48 1332.13 2331.71 1332.26 2351.14 1359.81C2355.87 1358.85 2356.92 1354.16 2359.43 1351.14C2370.74 1337.53 2398.48 1335.18 2411.61 1347.06C2417.75 1352.62 2421.1 1359.41 2421.13 1367.8C2421.28 1411.69 2421.36 1455.58 2421.74 1499.46C2421.8 1506.13 2419.21 1508.39 2412.94 1507.86C2409.65 1507.58 2406.26 1507.46 2403.01 1507.9C2394.46 1509.07 2392.76 1505.03 2392.84 1497.25C2393.2 1461.23 2393.11 1425.2 2392.96 1389.18C2392.88 1370.79 2389.1 1367.25 2371.38 1367.73C2359.59 1368.05 2354.1 1374.29 2353.89 1389.49C2353.52 1415.99 2353.75 1442.49 2353.73 1468.99C2353.73 1476.44 2353.73 1483.9 2353.73 1491.35C2353.72 1508.56 2346.85 1513.36 2329.75 1508.87C2323.29 1507.17 2325.59 1502.52 2325.57 1498.96C2325.36 1464.59 2325.47 1430.22 2325.26 1395.85C2325.23 1390.54 2323.86 1385.25 2323.42 1379.93C2322.4 1367.52 2312.21 1366.56 2303.75 1365.74C2295.67 1364.97 2290.12 1370.73 2287.84 1378.71C2285.56 1386.7 2284.55 1394.88 2284.56 1403.21C2284.59 1434.68 2283.99 1466.16 2284.77 1497.62C2285.11 1511.68 2275.9 1507.16 2269.03 1507.7C2261.81 1508.27 2255.79 1508.88 2255.95 1497.53C2256.62 1449.09 2256.36 1400.64 2256.12 1352.19C2256.09 1345.14 2257.16 1341.79 2265.46 1342.01C2279.49 1342.39 2279.51 1341.78 2287.81 1359.26V1359.27Z" fill="#C0A361"/>
<path d="M1804.66 902.28C1815.85 902.28 1827.05 902.65 1838.21 902.14C1845 901.83 1846.54 904.6 1846.7 910.79C1846.87 917.34 1844.67 919.02 1838.21 919.26C1822.92 919.82 1820.44 923.88 1824.94 938.33C1836.6 975.69 1848.33 1013.03 1859.83 1050.44C1860.67 1053.18 1860.57 1057.16 1863.7 1057.02C1866.6 1056.89 1866.61 1052.92 1867.46 1050.12C1876.9 1018.88 1886.76 987.78 1896.23 956.55C1898.1 950.38 1897.98 943.77 1899.37 937.36C1901.32 928.36 1894.2 921.12 1884.21 921.63C1875.85 922.05 1875.98 917.47 1875.61 911.69C1875.19 905.13 1876.64 901.92 1884.3 902.16C1901.68 902.7 1919.1 902.27 1936.49 902.35C1939.95 902.36 1944.99 901.09 1944.29 907.1C1943.79 911.4 1947.76 917.12 1940.65 919.85C1923.65 926.38 1918.94 941.52 1914.15 957.08C1896.28 1015.14 1877.42 1072.9 1860.15 1131.13C1855.38 1147.22 1850.05 1163.45 1842.31 1177.62C1831.44 1197.51 1816.07 1215.47 1790.06 1217.29C1780.34 1217.97 1763.34 1206.43 1761.01 1195.78C1759.01 1186.66 1755.99 1177.39 1761.56 1167.49C1767.77 1156.46 1774.26 1151.82 1786.6 1155.2C1798.21 1158.38 1796.35 1169.17 1796.06 1177.17C1795.88 1182.1 1795.96 1186.75 1799.18 1189.09C1803.51 1192.24 1808.32 1189.26 1812.39 1186.27C1823.9 1177.82 1827.86 1164.43 1833.61 1152.5C1837.41 1144.62 1839.36 1135.78 1843.7 1127.93C1847.94 1120.26 1846.63 1112.48 1843.92 1104.45C1828.38 1058.35 1813.07 1012.17 1797.74 966C1794.93 957.55 1792.18 949.08 1789.72 940.52C1786.66 929.87 1782.88 920.49 1769.36 919.87C1760.98 919.49 1763.62 912.48 1763.44 907.64C1763.19 900.92 1768.45 902.4 1772.31 902.35C1783.08 902.23 1793.85 902.31 1804.62 902.29L1804.66 902.28Z" fill="#296436"/>
<path d="M2777.51 1019.28C2776.48 984.51 2783.72 954.92 2800.17 927.04C2826.7 882.11 2884.82 889.08 2907.12 926C2928.72 961.76 2933.41 1000.65 2927.46 1041.71C2924.16 1064.43 2917.58 1085.3 2903.77 1103.65C2885.63 1127.76 2849.05 1138.13 2818.88 1118.16C2797.17 1103.79 2790.27 1081.91 2782.51 1060.02C2777.58 1046.11 2775.96 1031.36 2777.51 1019.28ZM2814.73 1010.99C2814.73 1022.56 2813.54 1034.29 2815 1045.68C2817.36 1064.04 2818.66 1083.01 2831.58 1098.27C2843.88 1112.81 2858.83 1113.66 2872.93 1100.61C2880.83 1093.29 2884.87 1084.02 2886.87 1073.93C2892.27 1046.79 2893.38 1019.47 2892.04 991.74C2891.09 971.99 2889.69 952.89 2881.7 934.55C2877.63 925.21 2871.23 918.12 2861.59 916.73C2850.14 915.08 2838.22 915.68 2830.79 927.4C2826.44 934.27 2822.15 941.13 2819.83 949.04C2813.88 969.33 2814.77 990.23 2814.73 1010.99Z" fill="#296436"/>
<path d="M1211.76 1013.35C1212.64 1044.43 1205.69 1071.79 1190.56 1097.08C1171.9 1128.26 1124.7 1144.22 1092.64 1110.51C1071.43 1088.21 1061.26 1061.21 1059.3 1031.11C1057.75 1007.39 1059.3 983.83 1066.63 960.83C1073.87 938.1 1085.02 917.81 1104.11 903.29C1118.55 892.3 1159.55 891.74 1180.07 914.14C1195.97 931.5 1203.33 952.51 1208.25 974.62C1211.19 987.83 1212.95 1001.36 1211.76 1013.34V1013.35ZM1096.69 1012.75C1096.69 1025.13 1095.01 1037.81 1097.1 1049.83C1099.9 1065.95 1101.23 1082.89 1112.32 1096.7C1127.49 1115.59 1149.28 1114.24 1161.01 1093.04C1167.76 1080.84 1170.06 1067.45 1172.16 1053.71C1178.1 1014.75 1178.96 976.39 1164.88 938.76C1160.49 927.02 1155.03 917.8 1140.59 916.34C1122.66 914.53 1113.66 923.69 1106.48 938.45C1094.88 962.28 1097.29 987.69 1096.7 1012.75H1096.69Z" fill="#296436"/>
<path d="M2609.25 1031.1C2609.98 987.7 2614.09 958.94 2629.14 932.39C2643.45 907.17 2663.02 892.7 2693.32 896.42C2718.11 899.46 2734.21 914.3 2744.69 935.44C2754.85 955.92 2760.12 977.69 2760.34 1001.02C2760.56 1024.96 2761.31 1048.63 2752.64 1071.51C2737.36 1111.86 2721.06 1126.57 2683.23 1129.21C2663.54 1130.58 2646.18 1117.9 2634.16 1100.96C2616.43 1075.96 2608.25 1048.07 2609.25 1031.11V1031.1ZM2646.24 1012.62C2646.24 1022.53 2645.55 1032.5 2646.39 1042.33C2647.86 1059.57 2649.95 1076.91 2659.04 1092.19C2665.05 1102.3 2673.11 1110.63 2686.05 1110.11C2699.13 1109.59 2710.89 1099.31 2714.97 1085.29C2719.04 1071.33 2722.03 1057.36 2723.39 1042.56C2726.59 1007.65 2726.53 973.21 2716.1 939.71C2709.63 918.93 2695.54 910.86 2675.51 917.32C2660.78 922.06 2655.03 937.7 2651.09 952C2645.64 971.79 2645.88 992.25 2646.25 1012.61L2646.24 1012.62Z" fill="#296436"/>
<path d="M1759 633.66C1758.41 656.59 1754.18 680.74 1744.01 703.71C1733.39 727.67 1714.84 742.51 1689.62 747.15C1672.3 750.33 1656.78 742.29 1643.83 731.02C1623.17 713.03 1613.31 688.69 1609.04 662.65C1601.72 617.97 1610.45 576.21 1636.66 538.65C1649.52 520.22 1673.86 512.83 1696.25 517.86C1727 524.77 1740.24 547.67 1749.82 573.66C1756.63 592.14 1758.57 611.88 1759 633.66ZM1643.92 628.85C1644.01 654.48 1645.04 675.12 1650.88 695.42C1655.82 712.61 1669.69 727.72 1682.38 727.72C1697.97 727.72 1706.84 717.98 1713.76 696.87C1718.37 682.79 1719.31 668.57 1721.02 654.1C1724.76 622.38 1723.1 591.53 1713.14 561.21C1706.62 541.38 1700.14 536.4 1681.84 536.47C1668.81 536.52 1659.1 546.09 1652.99 562.03C1644.08 585.29 1645 609.54 1643.92 628.86V628.85Z" fill="#296436"/>
<path d="M1295.23 1512.75C1289.56 1513.88 1283.88 1513.8 1278.21 1512.79C1251.98 1492.68 1250.35 1463.41 1249.48 1434.18C1248.87 1413.69 1248.35 1393.15 1254.04 1372.96C1260.57 1349.81 1271.41 1339.86 1290.92 1339.6C1299.18 1339.49 1305.23 1342.85 1310.56 1348.33C1313.31 1351.17 1314.86 1355.24 1320.57 1356.98C1320.81 1352.26 1321.22 1347.98 1321.23 1343.69C1321.31 1310.61 1321.67 1277.52 1321.09 1244.44C1320.93 1235.28 1322.99 1232.34 1332.52 1232.74C1349.76 1233.45 1349.79 1232.82 1349.79 1249.66C1349.79 1331.13 1349.83 1412.59 1349.64 1494.06C1349.63 1498.53 1352.46 1505.41 1346.39 1507.07C1338.96 1509.1 1330.2 1509.84 1323.28 1506.6C1318.07 1504.17 1323.48 1495.73 1318.38 1489.11C1313.6 1500.59 1304.52 1506.77 1295.26 1512.75H1295.23ZM1279.61 1423.75C1279.87 1438.55 1278.13 1453.55 1282.64 1467.96C1285.44 1476.89 1290.19 1485.31 1301.23 1484.88C1311.46 1484.49 1315.87 1476.64 1318.21 1467.86C1320.97 1457.53 1323.14 1447.09 1322.92 1436.23C1322.6 1419.93 1323.34 1403.66 1319.17 1387.57C1316.61 1377.71 1314.84 1367.74 1302.84 1365.5C1293.4 1363.75 1286.03 1371.07 1282.14 1384.39C1278.35 1397.37 1280.16 1410.61 1279.61 1423.74V1423.75Z" fill="#C0A361"/>
<path d="M289.779 1359.43C298.049 1350.62 304.749 1341.33 316.889 1339.83C340.969 1336.86 355.539 1347.08 356.509 1372.54C358.159 1415.91 357.069 1459.39 357.289 1502.82C357.319 1507.77 355.169 1509.47 350.679 1509.43C346.539 1509.39 342.349 1509.03 338.269 1509.53C330.379 1510.51 328.519 1507 328.589 1499.64C328.919 1466.55 328.729 1433.46 328.739 1400.36C328.739 1392.58 327.449 1385.38 324.919 1377.72C321.519 1367.45 315.539 1364.99 306.549 1365.37C297.549 1365.75 292.169 1370.85 290.099 1379.46C288.549 1385.88 287.529 1392.33 287.559 1399.03C287.749 1432.12 287.459 1465.22 287.789 1498.3C287.869 1505.8 286.679 1509.29 277.889 1509.14C259.399 1508.82 259.359 1509.37 259.359 1490.87C259.339 1408.55 259.649 1326.23 258.999 1243.92C258.909 1232.16 264.289 1232.43 272.279 1232.95C279.849 1233.44 288.469 1229.69 288.009 1244.11C286.919 1277.99 287.639 1311.94 287.759 1345.86C287.769 1349.84 286.609 1354.03 289.769 1359.42L289.779 1359.43Z" fill="#C0A361"/>
<path d="M2255.48 1016.32C2252.97 984.3 2259.74 954.44 2277.24 927.27C2298.22 894.72 2334.57 887.68 2365.41 904.86C2390.92 919.08 2391.02 955.97 2383 974.01C2379.45 982.01 2369.72 984.15 2364.28 982.78C2356.14 980.73 2348.79 973.87 2347.17 963.76C2345.49 953.26 2349.06 943.75 2352.15 934.05C2355.56 923.35 2350.93 917.33 2339.8 916.61C2310.93 914.76 2307.2 926.98 2300.25 947.38C2289.28 979.58 2289.53 1013.1 2293.13 1046.22C2295.01 1063.49 2301.48 1080.3 2316.4 1092.2C2333.43 1105.78 2349.26 1100.05 2361.62 1087.85C2369.04 1080.53 2373.45 1071.38 2375.82 1061.02C2376.53 1057.92 2377.13 1050.56 2384.22 1054C2388.6 1056.13 2392.84 1057.07 2390.25 1065.42C2382.56 1090.22 2373.71 1113.26 2347.32 1124.03C2329.31 1131.38 2312.49 1130.82 2296.15 1118.72C2269.09 1098.67 2257 1071.42 2255.51 1038.66C2255.17 1031.23 2255.46 1023.76 2255.46 1016.32H2255.48Z" fill="#296436"/>
<path d="M3005.83 937.17C3005.83 986.81 3005.79 1036.46 3005.85 1086.1C3005.87 1103.25 3007.46 1105 3025.04 1105.14C3031.03 1105.19 3033.63 1106.04 3033.83 1113.03C3034.06 1120.71 3030.3 1120.64 3024.87 1120.61C3000.45 1120.48 2976.02 1120.57 2951.6 1120.55C2947.61 1120.55 2942.84 1121.67 2943.63 1114.81C2944.14 1110.36 2942.08 1106.38 2950.16 1104.87C2972.98 1100.6 2972.81 1099.77 2972.81 1076.02C2972.8 992.04 2972.81 908.06 2972.79 824.08C2972.79 802.43 2971 800.66 2949.25 799.5C2944.89 799.27 2938.01 801.79 2939.09 793.25C2939.76 787.95 2934.83 780.84 2946.71 779.17C2964.21 776.7 2981.89 778.1 2999.25 774.84C3007.87 773.22 3005.76 780.07 3005.76 784.52C3005.85 835.41 3005.82 886.29 3005.82 937.18L3005.83 937.17Z" fill="#296436"/>
<path d="M1664.93 1010.94C1664.93 985.7 1664.62 960.45 1665.11 935.22C1665.27 926.93 1663.54 922.57 1654.34 924.05C1651.51 924.51 1648.55 924.21 1645.66 924.12C1640.48 923.96 1633.61 925.51 1633.83 917.32C1634 911.1 1629.39 903.16 1641.76 900.58C1658.7 897.06 1667.24 883.06 1672.55 867.67C1678.07 851.67 1680.6 835 1680.6 818.08C1680.6 812.1 1681.43 809.28 1688.54 809.37C1695.39 809.45 1696.65 811.83 1696.58 818C1696.28 842.82 1696.71 867.66 1696.32 892.48C1696.2 899.98 1698.41 902.81 1706.11 902.48C1718.09 901.96 1730.15 902.87 1742.11 902.16C1751.62 901.59 1750.33 907.44 1750.43 913.27C1750.54 919.39 1751.06 924.68 1741.81 924.08C1729.85 923.3 1717.8 924.19 1705.8 923.8C1699.15 923.58 1696.25 925.17 1696.3 932.64C1696.63 977.74 1696.49 1022.84 1696.52 1067.95C1696.52 1068.78 1696.52 1069.61 1696.59 1070.43C1698.15 1087.69 1706.25 1099.47 1717.13 1100.35C1727.56 1101.19 1740.74 1086.94 1742.61 1071.27C1743.72 1062.01 1746.96 1052.9 1745.4 1043.34C1744.48 1037.67 1746.52 1035.39 1752.76 1035.53C1758.52 1035.66 1761.18 1036.93 1760.45 1043.11C1758.26 1061.69 1758.64 1080.59 1751.37 1098.43C1743.11 1118.69 1723.74 1131.16 1702.33 1127.68C1685.11 1124.87 1666.01 1111.53 1665.56 1085.41C1665.13 1060.6 1665.47 1035.78 1665.47 1010.96C1665.29 1010.96 1665.11 1010.96 1664.93 1010.96V1010.94Z" fill="#296436"/>
<path d="M1432.26 556.39C1432.26 603.6 1432.27 650.81 1432.26 698.02C1432.26 719.22 1432.14 720 1452.48 722.19C1460.32 723.04 1459.18 726.64 1459.77 731.57C1460.64 738.84 1456.28 738.39 1451.49 738.37C1427.04 738.3 1402.59 738.23 1378.14 738.44C1372.78 738.49 1369.64 737.88 1369.88 731.24C1370.09 725.48 1370.59 722.71 1377.76 722.4C1395.61 721.63 1399.55 716.78 1399.55 698.79C1399.57 613.48 1399.58 528.17 1399.55 442.86C1399.55 423.48 1398.08 422.38 1378.36 421.93C1374.55 421.84 1367.04 425.94 1367.59 416.8C1367.96 410.62 1363.19 401.71 1376.28 401.29C1392.61 400.76 1408.9 398.55 1425.17 396.77C1434.74 395.72 1432.21 402.55 1432.22 407.31C1432.33 457 1432.29 506.7 1432.26 556.4V556.39Z" fill="#296436"/>
<path d="M1532.45 623.77C1532.45 646.53 1532.36 669.3 1532.48 692.06C1532.54 703.99 1540.8 715.96 1549.7 717.59C1559.65 719.41 1568.95 711.57 1574.03 699.32C1579.12 687.04 1578.4 673.94 1581.03 661.35C1582.08 656.36 1583.85 655.67 1588.14 655.47C1593.71 655.21 1593.76 658.26 1593.97 662.38C1594.96 681.88 1592.49 700.77 1584.91 718.89C1576.97 737.87 1557.46 748.61 1536.65 745.12C1516.42 741.72 1501.67 723.76 1501.49 705.28C1501.01 656.45 1500.54 607.61 1500.99 558.78C1501.09 547.99 1497.62 545.79 1487.87 546.14C1470.93 546.75 1469.55 544.57 1471.82 528.36C1472.27 525.13 1473.28 522.39 1476.18 521.68C1500.92 515.59 1506.36 494.62 1511.61 474.45C1514.75 462.38 1517.41 449.8 1516.59 437.06C1516.19 430.78 1518.92 429.56 1524.52 429.42C1530.51 429.27 1532.41 431.29 1532.36 437.18C1532.13 462.43 1532.54 487.68 1532.11 512.92C1531.98 520.4 1533.91 523.28 1541.73 522.9C1553.3 522.33 1564.96 523.38 1576.5 522.61C1586.06 521.97 1584.71 527.82 1584.94 533.63C1585.19 540.01 1585.14 544.83 1576.11 544.19C1564.57 543.36 1552.91 544.37 1541.34 543.85C1534.25 543.54 1532.03 545.95 1532.13 552.99C1532.48 576.58 1532.26 600.18 1532.26 623.77C1532.32 623.77 1532.38 623.77 1532.44 623.77H1532.45Z" fill="#296436"/>
<path d="M961.349 1293.16C955.409 1290.63 951.689 1288.86 947.849 1287.44C933.779 1282.2 918.469 1284.44 911.149 1294.07C901.989 1306.12 897.559 1319.46 905.049 1334.36C913.209 1350.59 925.939 1363.39 938.999 1375.16C964.459 1398.09 973.969 1426.43 971.169 1459.31C969.779 1475.58 962.969 1488.31 947.569 1498.62C925.969 1513.1 906.399 1511.18 885.229 1501.15C875.149 1496.37 880.019 1487.07 880.689 1480.42C881.419 1473.11 887.509 1479.22 891.249 1479.33C892.049 1479.35 892.839 1479.78 893.649 1479.93C907.039 1482.46 922.159 1487.36 931.999 1475.13C943.459 1460.87 944.599 1443.1 937.929 1425.74C933.059 1413.08 923.269 1403.88 913.919 1394.47C904.019 1384.51 893.999 1374.66 884.439 1364.38C875.909 1355.21 873.729 1343.18 871.999 1331.44C868.059 1304.72 872.909 1281.27 895.989 1263.35C908.929 1253.31 944.889 1254.06 957.799 1261.34C961.639 1263.51 961.359 1266.29 961.359 1269.52C961.359 1276.95 961.359 1284.38 961.359 1293.17L961.349 1293.16Z" fill="#C0A361"/>
<path d="M2052.98 1289.47C2019.39 1278.38 1995.91 1290.74 1988.98 1325.44C1981.03 1365.25 1979.88 1405.72 1991.1 1445.42C1998.86 1472.88 2012.81 1482.81 2041.52 1482.83C2048.11 1482.83 2051.61 1485.1 2052.01 1491.94C2052.46 1499.64 2051.19 1506.17 2042.41 1508.18C2003.38 1517.14 1975.05 1501.2 1961.3 1462.97C1949.14 1429.18 1948.8 1394.4 1951.7 1359.25C1953.92 1332.42 1957.2 1305.97 1972.5 1282.66C1986.35 1261.56 2013.22 1250.85 2037.4 1256.58C2048.21 1259.15 2055.67 1263.35 2053.1 1276.38C2052.32 1280.34 2052.98 1284.58 2052.98 1289.46V1289.47Z" fill="#C0A361"/>
<path d="M2528.52 1512.76C2521.98 1513.85 2515.45 1513.89 2508.91 1512.73C2474.47 1498.6 2468.69 1469.28 2469.31 1437.01C2469.76 1413.79 2466.23 1389.96 2475.51 1367.73C2481.81 1352.63 2493.01 1341.94 2510.24 1340.01C2529.98 1337.8 2546.28 1343.3 2555.87 1362.2C2565.62 1381.42 2566.66 1402.31 2567.74 1423.25C2568.1 1430.27 2564.08 1430.14 2559.17 1430.11C2542.21 1430.01 2525.23 1430.46 2508.28 1429.95C2499.97 1429.7 2497.56 1432.75 2497.77 1440.74C2497.98 1449.08 2499.37 1457.17 2500.9 1465.25C2502.77 1475.1 2507.44 1483.53 2518.38 1484.75C2527.6 1485.78 2536.05 1475.38 2537.42 1463.15C2537.78 1459.92 2534.78 1454.75 2540.9 1454.51C2549.08 1454.18 2557.29 1454.88 2565.49 1455.14C2565.41 1456.66 2565.27 1458.19 2565.25 1459.71C2564.88 1487.19 2555.82 1500.16 2530.29 1509.95C2529.46 1510.27 2529.1 1511.8 2528.52 1512.77V1512.76ZM2516.62 1409.55C2531.82 1409.52 2538.58 1402.66 2536.89 1388.98C2535.19 1375.16 2526.62 1364.79 2516.05 1365.68C2503.72 1366.73 2501.26 1376.99 2499.12 1386.9C2494.66 1407.56 2496.22 1409.59 2516.62 1409.54V1409.55Z" fill="#C0A361"/>
<path d="M2160.63 1512.74C2150.91 1512.66 2140.87 1516.57 2131.61 1510.49C2109.76 1493.24 2102.07 1469.64 2101.79 1442.97C2101.55 1420.3 2099.82 1397.54 2106.67 1375.3C2117.48 1340.22 2158.52 1326.49 2184.33 1350.23C2199.54 1364.22 2202.81 1384.01 2204.06 1403.38C2205.51 1425.95 2205.72 1448.58 2199.79 1470.96C2194.41 1491.24 2184.73 1506.26 2162.53 1510.02C2161.76 1510.15 2161.26 1511.8 2160.63 1512.74ZM2175.87 1423.01C2176.35 1410.11 2175.35 1396.21 2171.49 1382.5C2168.39 1371.48 2160.9 1368.17 2150.41 1367.69C2139.86 1367.21 2136.87 1374.38 2134.89 1382.09C2127.58 1410.58 2127.85 1439.25 2134.45 1467.81C2136.67 1477.41 2142.26 1484.19 2153.29 1484.23C2164.03 1484.27 2168.59 1477.03 2171.23 1468.31C2175.58 1453.96 2176.25 1439.11 2175.86 1423L2175.87 1423.01Z" fill="#C0A361"/>
<path d="M703.52 1512.75C696.18 1513.87 688.85 1513.85 681.52 1512.76C676.38 1505.06 666.84 1503.6 660.27 1497.25C647.21 1484.62 647.03 1468.09 645.58 1452.83C643.45 1430.34 643 1407.47 647.29 1384.89C649.49 1373.3 654.53 1363.04 660.51 1353.11C672.85 1332.58 719.19 1334.01 732.21 1362.39C741.4 1382.4 742.79 1403.49 742.51 1424.98C742.43 1430.92 738.45 1430.08 734.83 1430.09C718.28 1430.12 701.72 1430.61 685.2 1429.91C675.08 1429.48 671.38 1433.57 672.9 1442.94C674.41 1452.23 675.73 1461.65 678.47 1470.61C680.97 1478.79 686.04 1485.59 696.17 1485C707.18 1484.36 711.43 1476.57 714.2 1467.36C715.46 1463.19 712.55 1456.33 717.49 1455.12C724.51 1453.39 732.32 1453.86 739.65 1454.7C744.1 1455.21 742.46 1460.08 742.07 1463.01C739.08 1485.81 730.62 1504.46 705.36 1510.01C704.58 1510.18 704.12 1511.81 703.52 1512.75ZM690.34 1409.55C704.853 1409.56 712.123 1404.68 712.15 1394.89C712.2 1375.78 705.42 1365.06 693.25 1365.31C680.69 1365.56 675.51 1375.61 672.89 1398.76C670.93 1416.05 684.48 1407.16 690.34 1409.55Z" fill="#C0A361"/>
<path d="M1456.88 1512.78C1449.54 1513.85 1442.2 1513.89 1434.87 1512.76C1427.96 1505.38 1416.87 1504.01 1410.82 1494.94C1403.04 1483.28 1397.36 1469.9 1396.72 1457.06C1395.39 1430.16 1393.23 1402.88 1401.5 1376.15C1413.17 1338.42 1442.56 1332.62 1466.58 1344.66C1485.89 1354.34 1490.02 1374.32 1493.31 1393.78C1493.58 1395.39 1493.22 1397.1 1493.43 1398.73C1494.73 1408.83 1500.33 1421.92 1493.44 1428.15C1487.85 1433.2 1474.6 1429.92 1464.75 1430.08C1454.82 1430.25 1444.88 1430.1 1434.95 1430.11C1430.72 1430.11 1426.28 1429.81 1426.21 1436C1426.07 1448.85 1426.09 1461.68 1431.67 1473.68C1434.82 1480.45 1439.67 1485.85 1447.56 1485.55C1455.54 1485.24 1461.37 1480.59 1464.4 1473.01C1465.31 1470.73 1465.18 1467.88 1466.49 1465.95C1468.94 1462.34 1465.01 1455.48 1471.2 1454.52C1477.66 1453.52 1484.45 1453.9 1491 1454.57C1495.03 1454.98 1493.56 1459.06 1493.62 1461.72C1494.18 1483.37 1481.43 1501.98 1460.96 1509.33C1459.05 1510.01 1456.78 1509.88 1456.89 1512.78H1456.88ZM1444.63 1409.59C1457.93 1409.59 1464.07 1402.92 1463.04 1389.57C1462.76 1385.91 1463.17 1381.98 1461.94 1378.66C1459.29 1371.51 1455.27 1365.49 1446.24 1365.29C1436.89 1365.09 1431.85 1370.26 1429.07 1378.33C1427.88 1381.8 1427.08 1385.48 1426.62 1389.12C1424.09 1409.43 1424.27 1409.58 1444.63 1409.59Z" fill="#C0A361"/>
<path d="M1547.42 1425.97C1547.42 1401.54 1547.72 1377.11 1547.24 1352.7C1547.09 1344.89 1548.69 1340.73 1557.29 1342.22C1564.86 1343.53 1575.93 1337.1 1576.76 1352.84C1576.98 1357.08 1582.59 1353.65 1585.26 1350.95C1590.88 1345.26 1597.24 1340.86 1605.48 1339.89C1629.28 1337.06 1644.3 1348.72 1644.81 1373.04C1645.71 1415.66 1645.08 1458.32 1645.35 1500.96C1645.39 1506.79 1643.68 1509.39 1637.68 1508.93C1633.97 1508.65 1630.18 1508.53 1626.51 1509C1618.88 1509.99 1616.62 1507.1 1616.71 1499.4C1617.1 1465.04 1616.8 1430.68 1616.93 1396.32C1616.95 1390.04 1616.3 1383.94 1614.51 1377.96C1611.9 1369.24 1605.65 1365.58 1596.83 1365.29C1587.8 1365 1581.49 1368.95 1578.82 1377.42C1576.72 1384.08 1575.61 1391 1575.65 1398.16C1575.86 1431.69 1575.5 1465.23 1575.98 1498.76C1576.1 1507.03 1573.58 1509.23 1565.51 1509.11C1547.38 1508.84 1547.37 1509.27 1547.37 1490.58C1547.37 1469.05 1547.37 1447.52 1547.4 1426L1547.42 1425.97Z" fill="#C0A361"/>
<path d="M462.299 1512.75C454.959 1513.88 447.619 1513.87 440.279 1512.76C440.249 1512.35 440.339 1511.63 440.169 1511.56C409.949 1499.39 403.729 1473.78 403.089 1445.19C402.539 1420.84 400.869 1396.41 408.599 1372.65C415.409 1351.71 428.609 1340.29 447.129 1339.74C470.819 1339.04 484.499 1347.87 492.809 1369.86C499.159 1386.65 500.959 1404.25 501.519 1422.1C501.739 1429.06 498.849 1430.3 492.769 1430.18C476.209 1429.87 459.619 1430.66 443.089 1429.87C433.349 1429.41 431.039 1433.1 431.399 1442.03C431.819 1452.47 433.249 1462.54 436.829 1472.34C439.639 1480.03 444.479 1485.18 453.149 1485.09C461.589 1485 466.849 1480.07 470.069 1472.69C470.889 1470.81 470.939 1468.5 472.029 1466.84C474.529 1463.02 470.599 1456.12 475.829 1454.82C482.079 1453.27 488.989 1454.3 495.609 1454.32C500.429 1454.33 498.799 1457.79 498.929 1460.51C499.809 1478.88 489.059 1504.57 465.309 1509.56C463.479 1509.94 462.369 1510.79 462.309 1512.74L462.299 1512.75ZM451.029 1409.99C456.609 1405.03 471.129 1418.43 471.109 1400.01C471.079 1378.52 463.829 1365.66 451.459 1365.33C438.519 1364.98 432.519 1376.36 431.369 1397.85C430.439 1415.38 442.679 1407.89 451.029 1410V1409.99Z" fill="#C0A361"/>
<path d="M1168.47 1512.77C1159.46 1513.85 1150.44 1513.93 1141.43 1512.74C1140.83 1511.78 1140.36 1510.1 1139.61 1509.96C1113.75 1505.02 1106.2 1485.91 1105.57 1463.42C1104.51 1425.36 1105.12 1387.26 1104.75 1349.17C1104.7 1343.42 1107.08 1342.6 1112.1 1342.34C1133.5 1341.24 1133.53 1341.06 1133.53 1362.62C1133.53 1392.01 1133.36 1421.41 1133.56 1450.8C1133.61 1457.35 1134.33 1464.02 1135.76 1470.41C1137.98 1480.31 1145.2 1484.61 1154.96 1484.56C1164.09 1484.51 1171.21 1481.12 1173 1471.14C1173.79 1466.71 1174.4 1462.19 1174.42 1457.7C1174.54 1422.92 1174.77 1388.14 1174.31 1353.37C1174.2 1344.85 1176.22 1341.03 1185.16 1342.42C1188.4 1342.92 1191.8 1342.73 1195.08 1342.42C1200.67 1341.9 1203.3 1343.5 1203.24 1349.81C1202.88 1389.97 1203.32 1430.13 1202.49 1470.28C1202.04 1491.87 1192.43 1502.81 1171.35 1509.55C1169.56 1510.12 1168.46 1510.82 1168.48 1512.77H1168.47Z" fill="#C0A361"/>
<path d="M2700.39 1383.91C2700.39 1346.24 2700.62 1308.56 2700.21 1270.89C2700.12 1262.4 2702.35 1259.23 2711.24 1259.44C2733.18 1259.97 2755.16 1260.02 2777.1 1259.36C2786.84 1259.07 2787.79 1263.73 2787.49 1271.41C2787.2 1278.7 2788.25 1285.35 2777.04 1284.82C2764.28 1284.22 2751.43 1284.02 2738.6 1285.56C2733.17 1286.21 2730.09 1287.25 2730.13 1293.31C2730.26 1315.25 2730.3 1337.19 2730.13 1359.13C2730.08 1366.04 2733.75 1367.27 2739.62 1367.14C2751.21 1366.89 2762.83 1367.42 2774.41 1367.03C2785.81 1366.65 2781.52 1375.01 2781.58 1380.05C2781.64 1385.17 2785.54 1393.47 2774.31 1393.07C2763.55 1392.69 2752.74 1393.43 2742.01 1392.78C2732.8 1392.23 2729.75 1395.51 2729.91 1404.8C2730.42 1435.01 2729.63 1465.25 2730.44 1495.46C2730.74 1506.67 2726.24 1508.78 2716.63 1507.96C2708.31 1507.24 2699.68 1510.37 2700.09 1495.67C2701.14 1458.44 2700.44 1421.16 2700.44 1383.9H2700.38L2700.39 1383.91Z" fill="#C0A361"/>
<path d="M1809.92 1512.76C1803.37 1513.88 1796.82 1513.89 1790.28 1512.73C1778.68 1504.69 1773.43 1493.01 1774.53 1477.69C1781.31 1479.56 1786.96 1484.3 1794.12 1484.89C1803.19 1485.64 1811.84 1484.81 1817.23 1476.41C1822.57 1468.09 1822.63 1459.09 1817.61 1450.56C1811.3 1439.85 1800.75 1433.78 1790.73 1427.23C1767.4 1411.98 1760.42 1377.1 1776.31 1354.76C1786.19 1340.87 1821.37 1334.61 1835.63 1343.87C1839.21 1346.2 1839.02 1349.14 1839.04 1352.39C1839.08 1359.01 1839.05 1365.63 1839.05 1372.35C1828.38 1364.8 1816.41 1367.27 1805.25 1368.35C1796 1369.25 1791.61 1383.55 1796.45 1392.48C1800.08 1399.18 1805.29 1404.41 1811.28 1408.95C1816.56 1412.95 1821.79 1417.01 1827.12 1420.94C1845.81 1434.71 1849.55 1454.31 1845.97 1475.18C1842.78 1493.76 1831.1 1506.17 1811.7 1509.95C1810.95 1510.1 1810.51 1511.78 1809.92 1512.75V1512.76Z" fill="#C0A361"/>
<path d="M3048.27 1512.76C3040.92 1513.89 3033.56 1513.84 3026.21 1512.8C3016.97 1506.23 3010.98 1498.52 3013.3 1485.94C3014.42 1479.88 3014.99 1477.53 3021.34 1481.11C3025.2 1483.28 3029.77 1485.11 3034.1 1485.31C3042.9 1485.71 3051.89 1484.63 3056.61 1475.63C3061.1 1467.07 3061.3 1458.19 3055.86 1449.76C3048.22 1437.91 3036.04 1431.1 3025.12 1423.09C3008.2 1410.68 3002.14 1391.96 3009.16 1369.38C3015.12 1350.22 3029.41 1339.92 3050.03 1339.93C3050.44 1339.93 3050.86 1339.93 3051.27 1339.93C3077.36 1340.04 3080.07 1343.28 3076.06 1370.14C3067.35 1366.4 3058.22 1367.68 3049.24 1367.87C3037.89 1368.1 3031.53 1376.95 3034.08 1387.99C3036.18 1397.04 3042.14 1403.17 3049.32 1408.35C3058.73 1415.14 3068.21 1421.82 3075.62 1430.91C3094.03 1453.45 3088.04 1491.3 3064.11 1505.3C3059 1508.29 3052.25 1507.57 3048.25 1512.75L3048.27 1512.76Z" fill="#C0A361"/>
<path d="M3135.97 1436.49C3135.97 1416.21 3135.82 1395.93 3136.05 1375.66C3136.13 1368.98 3135.28 1363.96 3126.84 1365.03C3117.34 1366.23 3116.52 1360.85 3116.23 1353.02C3115.9 1344.25 3118.55 1340.9 3127.27 1342.15C3133.68 1343.07 3136.17 1339.79 3136.04 1333.5C3135.82 1323.57 3136.42 1313.62 3135.9 1303.71C3135.53 1296.6 3138.02 1293.86 3145.05 1294.69C3148.32 1295.07 3151.72 1295.12 3154.97 1294.65C3163.03 1293.49 3164.86 1297.22 3164.43 1304.54C3163.87 1314.02 3164.49 1323.57 3164.24 1333.08C3164.08 1339 3165.53 1343.15 3172.41 1342.09C3182.31 1340.57 3181.66 1346.73 3181.58 1353.4C3181.5 1359.85 3182.7 1366.41 3172.62 1365.02C3163.45 1363.75 3164.26 1370.16 3164.27 1376.11C3164.31 1416.25 3163.68 1456.41 3164.59 1496.53C3164.89 1509.53 3157.75 1507.56 3149.92 1507.89C3141.28 1508.26 3135.03 1508.26 3135.71 1496.06C3136.81 1476.26 3136.01 1456.35 3135.98 1436.49H3135.97Z" fill="#C0A361"/>
<path d="M1696.88 1434.66C1696.88 1414.8 1696.65 1394.93 1697 1375.07C1697.13 1368.02 1695.76 1363.73 1687.6 1364.94C1679.21 1366.18 1679 1360.71 1679.79 1354.92C1680.5 1349.7 1676.17 1341.06 1687.41 1342.27C1695.53 1343.14 1697.28 1338.95 1696.92 1331.92C1696.54 1324.49 1696.51 1317 1697 1309.59C1697.33 1304.72 1693.93 1297.02 1698.98 1295.52C1706.17 1293.38 1714.56 1294.64 1722.35 1295.35C1726.08 1295.69 1725.05 1299.89 1725.09 1302.6C1725.25 1312.53 1725.28 1322.46 1725.24 1332.39C1725.21 1338.54 1726.6 1343.26 1734.23 1342.33C1745.49 1340.96 1741.49 1349.39 1742.01 1354.63C1742.54 1360 1743.33 1366.06 1734.56 1364.93C1724.91 1363.68 1725.16 1370.11 1725.17 1376.71C1725.22 1416.44 1724.67 1456.17 1725.45 1495.88C1725.68 1507.67 1720.43 1508.26 1711.42 1508.05C1702.51 1507.85 1695.71 1508.44 1696.51 1495.47C1697.75 1475.27 1696.84 1454.94 1696.87 1434.66H1696.88Z" fill="#C0A361"/>
<path d="M1017.98 1436.64C1017.98 1416.37 1017.73 1396.09 1018.11 1375.83C1018.25 1368.33 1016.77 1363.8 1008.1 1364.88C999.29 1365.98 1000.22 1359.7 1000.78 1354.4C1001.29 1349.55 997.22 1341.58 1007.73 1342.44C1016.31 1343.14 1018.33 1338.32 1018.03 1330.92C1017.74 1323.49 1018.74 1315.93 1017.79 1308.61C1016.28 1297 1020.92 1294.63 1031.95 1294.25C1044.49 1293.82 1048.03 1298.06 1046.52 1309.61C1045.78 1315.31 1046.52 1321.18 1046.34 1326.97C1046.06 1335.6 1045.32 1343.35 1058.5 1342.8C1067.32 1342.44 1062.31 1350.9 1063.03 1355.3C1063.66 1359.18 1065.31 1365.71 1057.63 1364.8C1046.04 1363.42 1046.24 1370.39 1046.28 1378.54C1046.45 1417.84 1045.73 1457.15 1046.61 1496.43C1046.92 1510.45 1038.58 1507.36 1030.74 1507.92C1022.01 1508.55 1017.14 1507.2 1017.7 1496.22C1018.72 1476.41 1017.99 1456.52 1017.97 1436.66L1017.98 1436.64Z" fill="#C0A361"/>
<path d="M576.6 1512.88C567.65 1513.93 558.7 1513.95 549.76 1512.87C550.01 1480.64 550.32 1448.41 550.5 1416.18C550.62 1395.07 550.86 1373.94 550.4 1352.84C550.23 1345.08 551.83 1340.97 560.47 1342.44C562.88 1342.85 565.48 1342.8 567.91 1342.43C577.26 1341.01 581.99 1344.14 580.49 1354.26C580.29 1355.62 581.24 1357.15 582.11 1360.17C589.61 1352.21 595.19 1343.83 605.3 1341C612.14 1339.09 615.97 1338.69 615.88 1348.03C615.71 1366.55 616.19 1366.55 597.53 1370.44C588.36 1372.35 581.13 1383.01 580.98 1396.68C580.61 1429.38 580.67 1462.09 580.71 1494.8C580.71 1501.22 580.78 1507.49 576.61 1512.89L576.6 1512.88Z" fill="#C0A361"/>
<path d="M2950.7 1359.04C2955.99 1354.01 2961.09 1348.74 2966.64 1344.01C2971.31 1340.04 2977.6 1338.31 2982.93 1340.63C2987.82 1342.76 2984.43 1348.79 2985.07 1353.03C2986.51 1362.54 2985.85 1368.62 2972.59 1368.72C2957.41 1368.83 2948.47 1382.13 2948.32 1400.73C2948.06 1433.02 2948.24 1465.32 2948.26 1497.62C2948.26 1503.25 2949.61 1510.57 2940.14 1507.65C2932.93 1505.42 2919.51 1515.79 2919.59 1497.64C2919.82 1449.2 2919.86 1400.75 2919.47 1352.31C2919.4 1343.76 2922.44 1342.22 2930.19 1342.28C2941.55 1342.37 2953.03 1340.75 2950.69 1359.04H2950.7Z" fill="#C0A361"/>
<path d="M2868.48 1425.88C2868.48 1449.83 2868.13 1473.79 2868.67 1497.74C2868.86 1506.14 2865.95 1508.23 2858.05 1507.97C2836.32 1507.24 2840.26 1509.62 2839.94 1490.4C2839.66 1473.47 2839.89 1456.54 2839.89 1439.6C2839.89 1411.1 2840.22 1382.6 2839.7 1354.12C2839.54 1345.23 2841.38 1341.81 2851.16 1342.25C2868.57 1343.03 2868.58 1342.36 2868.56 1360.22C2868.54 1382.11 2868.56 1404 2868.56 1425.89H2868.49L2868.48 1425.88Z" fill="#C0A361"/>
<path d="M2833.11 1290.99C2832.86 1280.65 2842.83 1270.49 2853.36 1270.34C2864.49 1270.19 2873.29 1278.41 2873.51 1289.16C2873.73 1300.06 2863.1 1310.79 2852.29 1310.59C2844.71 1310.45 2833.29 1298.78 2833.11 1290.99Z" fill="#C0A361"/>
</g>
<defs>
<clipPath id="clip0_7504_92483">
<rect width="3185.15" height="1513.9" fill="white"/>
</clipPath>
</defs>
</svg>
